<svg id="Layer_1" data-name="Layer 1" xmlns="http://www.w3.org/2000/svg" viewBox="0 0 1920 1080"><defs><style>.cls-1{fill:#b3b3b3;}.cls-2{fill:#78a2b5;}</style></defs><path d="M960.13,1105.44q-477.66,0-955.32.11c-4.14,0-4.81-.94-4.81-4.91Q.17,565.56,0,30.47c0-4,.65-4.92,4.81-4.92q955.07.19,1910.13,0c4.35,0,5.06,1.05,5.06,5.16q-.16,535.1,0,1070.18c0,3.66-.68,4.65-4.54,4.65Q1437.79,1105.38,960.13,1105.44ZM1336,703.75a19.67,19.67,0,0,0,2.45-1.63c6.28-5.62,9.19-13.41,12.93-20.6,6.66-12.8,4.37-26.8-5.57-37.34-9.39-10-21.32-13.84-34.58-14.24-3.18-.1-4.39-1-4.47-4.3-.1-4.35-2.21-7.94-5.51-10.81-11.29-9.76-29.79-9.62-40.73.47-2.06,1.89-3.86,2.51-6.68,1.78-6.94-1.79-14-2.86-21.25-2a4.61,4.61,0,0,1-3.38-.43c-7.47-5.09-15.92-6.44-24.72-6.59-2.43-.05-4.89-.7-5.42-3.49-2.1-11.19-10.16-14.58-20.1-16.13-11.5-1.79-23.14-2.81-34.42-5.85a52.59,52.59,0,0,0-26.17-.25c-9,2.11-17.6,5-27.61,2.65-7.16-1.69-14.74-1.33-21.71-4.95-5.58-2.9-12.7-.3-18.08-2.63-11.35-4.9-23.58-5.26-35-8.54s-23.09-4.46-34.49-7.21c-5.76-1.39-11.88-1.88-17.12,1.07-4.94,2.78-8.59,3.41-13.43-.47-2.7-2.16-4.62-3.69-3.72-7.06,4.09-15.15-.4-29.6-4.93-43.49-11.93-36.55-37.73-61.21-71.12-78.62C823,408,772.29,406,720.48,418.29c-32.16,7.62-60.47,23.08-85.14,45.14-26.89,24.05-44.11,53.42-49.41,89.38-2.74,18.63,0,36.83,4.57,54.87,3.17,28.09,14.68,52.36,34,72.9,20.24,21.57,45.48,35.29,73.35,43.87a215.17,215.17,0,0,0,102.73,5.87c36.44-6.59,69.2-21.09,97.24-45.62,1.47-1.29,3.57-2.3,3.12-4.72-1.44-7.69-1.09-15.6-3-23.22,8-8.22,16.7-15.72,23.4-25.11,1.59,1.46.63,3.32.23,4.67-.86,2.9.29,5.2,1.28,7.63a5.12,5.12,0,0,0,4.74,3.11c2,.07,1.42-2.26,1.93-3.53.69-1.74,1.44-4.21,3.54-3,2.36,1.36,6.79-1.66,7.27,3.73.65,7.44,5.31,11.87,12,14.54,5.39,2.14,11.05,2.26,16.7,2.45,3,.11,6.25-.12,8.79,1.45,7.3,4.52,15.31,4.57,23.5,5.18,9.13.66,17.81,3.3,21.05,13.76a9.24,9.24,0,0,0,3.11,3.8c17.36,14.33,49,17.15,65.65,3.25,2.61-2.17,5-2.34,8.15-.58a66.57,66.57,0,0,0,34.85,9c4.08-.08,7.94.45,11.53,2.55a18.17,18.17,0,0,0,8.15,2.19c6.37.37,12.44,2,18.52,3.8,7.43,2.16,14.82,2.35,21.76-1.73,2.53-1.49,4.55-1.43,6.63.75,11.29,11.84,25.68,15.26,41.37,15a25.45,25.45,0,0,1,9.74,1.72c7,2.72,14.21,4.69,21.88,3.15,2.82-.56,5.2.62,7.49,2.11,11.85,7.77,25,9.41,38.73,8.08,4.79-.47,9.47-1.32,13.64-4.23,1.73-1.21,2.66-2.32,2.64-4.31Q1336.07,715,1336,703.75Z" transform="translate(0 -25.55)"/><path class="cls-1" d="M921.28,631.65c-6.7,9.39-15.44,16.89-23.39,25.11a23.48,23.48,0,0,0-2.89,1.88c-13.42,11.67-28.5,20.59-44.53,28.27-27.68,13.26-57,19.15-87.33,20.55-9.66.45-19.23-1.12-28.85-1.75-26.2-1.72-50.63-9.37-73.73-21.45-29.67-15.52-52.67-37.56-66.16-68.75-1.14-2.64-1.16-6-3.9-7.83-4.55-18-7.31-36.24-4.57-54.87,5.3-36,22.52-65.33,49.41-89.38,24.67-22.06,53-37.52,85.14-45.14C772.29,406,823,408,871.17,433.14c33.39,17.41,59.19,42.07,71.12,78.62,4.53,13.89,9,28.34,4.93,43.49-.9,3.37,1,4.9,3.72,7.06,4.84,3.88,8.49,3.25,13.43.47,5.24-2.95,11.36-2.46,17.12-1.07,11.4,2.75,23,3.91,34.49,7.21s23.61,3.64,35,8.54c5.38,2.33,12.5-.27,18.08,2.63,7,3.62,14.55,3.26,21.71,4.95,10,2.37,18.57-.54,27.61-2.65a52.59,52.59,0,0,1,26.17.25c11.28,3,22.92,4.06,34.42,5.85,9.94,1.55,18,4.94,20.1,16.13.53,2.79,3,3.44,5.42,3.49,8.8.15,17.25,1.5,24.72,6.59a4.61,4.61,0,0,0,3.38.43c7.22-.91,14.31.16,21.25,2,2.82.73,4.62.11,6.68-1.78,10.94-10.09,29.44-10.23,40.73-.47,3.3,2.87,5.41,6.46,5.51,10.81.08,3.26,1.29,4.2,4.47,4.3,13.26.4,25.19,4.28,34.58,14.24,9.94,10.54,12.23,24.54,5.57,37.34-3.74,7.19-6.65,15-12.93,20.6a19.67,19.67,0,0,1-2.45,1.63q-29.6,11.73-56.82-4.77a7.45,7.45,0,0,0-5.69-1.24c-7.51,1.71-14.54-.42-21.44-2.82-4-1.38-7.92-2.5-12.16-2.31-15.57.71-29.15-4-40.34-15-1.84-1.81-3.42-1.94-5.73-.7-5.55,3-11.36,4.25-17.79,2.87-7.94-1.7-15.62-4.73-23.86-4.9-5.94-.12-10.6-4.6-16.74-4.45a71.67,71.67,0,0,1-37.4-8.93c-3.09-1.73-5.51-1.52-8.14.62-16.51,13.43-48.12,10.38-64.78-2.19-2.81-2.11-5.27-4.58-6.24-8.19-.67-2.54-2.42-4.24-4.59-5.67a30.19,30.19,0,0,0-17.87-5.4c-7,.22-13.57-.43-19.69-4.18-2.88-1.77-6.3-1.75-9.66-2-7.4-.59-15.28-.06-21.58-4.83-4.32-3.28-5.61-2.13-6,2.57,0,.1-.55.15-1.5.38.91-4.92-.4-9.48-1-14.13-.28-2.27-.72-4-3.41-3.83-2.34.15-5.77-1-6.22,2.41C926.67,622.57,923.33,626.79,921.28,631.65ZM771,427.67c-37.48-.17-82.35,15.8-115.41,41.84-27.42,21.6-44.43,49.34-49.33,83.87-4.23,29.8,4.08,56.32,22.83,80a143.6,143.6,0,0,0,57.59,43.91c38.4,16.12,78.18,17.66,118.5,8.44a192.55,192.55,0,0,0,59.89-25.32c16.73-10.53,30.53-24,42.59-39.53,2.43-3.14,1.23-4.32-2-5-5.55-1.11-11.08-2.34-16.66-3.3a11.44,11.44,0,0,0-11.55,4.2c-3.17,3.84-6.65,7.45-10.16,11-16,16.09-35.79,25.75-56.63,33.68-1.32.5-2.79,1.7-4.09.13s-.71-3.09,0-4.7c2.09-4.71,4.4-9.35,6.12-14.2,6.92-19.47,9.43-34.74-10.47-52.32-3.72-3.29-3.51-4.44,1.22-5.78,18.07-5.13,32-15.42,42.28-31.35,12.53-19.43,11.33-43.88-4.14-61-15.78-17.46-36.77-22-58.91-22.32-20.44-.29-38.21,7.65-54.16,20.17C714,501.52,707,516.43,707.34,534.74c.25,12.12,5.15,22.59,12.86,31.79,2.54,3,2.74,5.11-1.63,6.46-3.65,1.12-7.21,2.59-10.75,4-15.93,6.48-29.33,15.63-35.53,32.77C670,616,667,622,664.46,628.15c-1.13,2.71-2.25,2.58-4.25.71-5.91-5.54-10.37-12.11-14.34-19.1C626.08,575,631.72,528.58,659,499.24a171.7,171.7,0,0,1,41.46-32.49c23.64-13.45,49.12-19.2,76.13-18.68a174.82,174.82,0,0,1,63.58,13.58,100.7,100.7,0,0,1,43.65,33.84c8.67,11.78,13.34,25.21,17,39.09,1.27,4.74,3.58,9,8.26,10.64,5.79,2,11.9,3.06,17.93,4.27,3.19.64,4.72-1,4.2-4.3-1.05-6.74-1.42-13.67-3.27-20.18-10.47-36.8-35.1-61.77-68.29-78.71C833.06,432.72,804.13,428.2,771,427.67Zm242.25,165.75c9,0,11.93,4.05,9,12.76-1.77,5.36-3.53,10.72-5.47,16-1.09,3-1.45,5.7,2.19,6.94,3.41,1.17,6.41.34,7.72-3.35,2.56-7.19,5.68-14.18,7.27-21.71,2-9.52-.49-13.53-10.08-15.45-3-.6-6.21-1.22-8.88,0-6.39,2.85-10.83,2.23-15.84-3.56-4.45-5.14-11.61-3.77-17.92-2.08-1.95.52-4.2,2-5.4-1.22-1-2.56-2.88-3.42-5.56-3s-4.26,1.84-5.14,4.53c-3,9.17-6.18,18.26-9.31,27.38-.64,1.85-2,3.89.56,5.22s5.29,1.18,7.27-1.11a14.24,14.24,0,0,0,2.17-4.44c1.76-4.83,3.32-9.74,5.15-14.55,2.9-7.62,7.26-9.92,15.2-8.25,5.82,1.23,7.64,4,5.88,9.63-1.86,6-4.07,12-6.13,17.92-1,2.91-2.23,6,1.88,7.47,4,1.41,6.78,0,8.2-4.1q3-8.7,6.21-17.37C1004.22,595.76,1007.66,593.42,1013.24,593.42Zm48.93,44.22c1.57.34,4.64-1.8,5.47.05,1.13,2.54-1.76,4.69-3.35,6.75-1.19,1.55-3,2-4.86,2.13a22.08,22.08,0,0,1-12.89-3.15c-1.73-1-3.45-2.06-5.56-2s-4.3.21-4.84,2.6c-.49,2.18,1.43,3.1,3,4,5.14,3,10.86,4.27,16.63,4.86,13,1.33,20.08-3.4,24.34-15.64q5-14.36,9.88-28.76c1.45-4.28.41-5.67-4.07-6.06-3-.27-4.89.69-6,3.84-2.26,6.59-3.82,13.49-7.28,19.59-3.74,6.58-8.79,8.22-15,5.36-4.75-2.17-6.05-6.87-3.75-13.84,1.76-5.37,3.58-10.72,5.42-16.06.57-1.65,1.05-3.14-.82-4.38a6.4,6.4,0,0,0-9.67,3.13c-2.24,6.25-4.36,12.56-6.47,18.86-3.1,9.24.36,15.57,9.87,18A28.69,28.69,0,0,0,1062.17,637.64ZM881.52,565.1c-3-.15-5.13.72-6.1,3.92a106,106,0,0,1-3.82,10.29c-1.4,3.31-.24,5.06,3,5.79,1.29.29,2.62.49,3.9.84,3.51,1,8.51.14,10.26,2.84,2,3.08-1.59,6.94-2.75,10.45-1,3.14-.57,5.13,3,5.83,5.38,1.07,10.74,2.27,16.1,3.42,4.09.87,6.73-.48,7.87-4.71.69-2.55,2-4.95,2.67-7.5s2.1-3.09,4.44-2.4c1.43.42,2.94.54,4.39.91,13,3.25,11.64,2.15,15.44-8.55,3.28-9.25,4.85-8.5-6.08-10.88-10.38-2.26-11.07-.53-6.93-11.71.29-.78.5-1.59.84-2.35,1.26-2.76.55-4.32-2.58-4.91-5.55-1.06-11.05-2.42-16.61-3.48-3.63-.7-6.51.09-7.59,4.31-.66,2.56-2.06,4.94-2.68,7.5-.74,3-2.37,3.5-5.11,2.83C889.37,566.58,885.43,565.9,881.52,565.1Zm431.25,126.23a32.62,32.62,0,0,0,10-1.83c1.69-.64,3.85-1.3,3.28-3.64-.51-2.1-2.6-2.31-4.5-2.31-3.49,0-6.85,1.28-10.41,1-7.25-.66-12.95-4.65-14-10.11-.62-3.37-.38-5.48,4.24-4.33,8.22,2.05,16.56,3.64,24.89,5.24,6.14,1.17,8.81-1.25,8.59-7.48a16.67,16.67,0,0,0-6.6-12.91c-9.12-7.31-24-8-33.81-1.56a19,19,0,0,0-2.86,29.73C1297.41,688.65,1304.55,691,1312.77,691.33Zm-179.92-46a29.51,29.51,0,0,1-9.9-.91c-10-2.56-15-9.63-14.19-19.88,1.08-13,14.15-21.6,27.81-18.39,4.1,1,7.7,3,11.51,4.69,3,1.3,6,.62,7.28-2.29,1.18-2.65-1.93-3.46-3.6-4.49-13.18-8.15-32.39-7.3-44.88,1.87a24.12,24.12,0,0,0,.78,39.78c7.91,5.29,16.71,7.26,26.09,6.71,3.13-.19,8.15.37,8.06-3.7-.12-4.79-5.19-3.15-8.46-3.38Zm106.32,30.17a30.38,30.38,0,0,0,9.4-1.08c1.68-.49,3.35-1.35,3-3.35s-2-2.62-3.8-2.54c-2.49.1-5,.55-7.45.73-8.22.6-14.92-4.3-16.13-11.73-1.24-7.61,3.31-14.12,11.29-16.4,6-1.7,11.16-.25,15.87,3.52,2.85,2.29,6,3.21,8-.46s-1.7-4.86-4.06-6c-8.64-4.29-17.63-5.77-27.1-2.89-9.25,2.82-14.87,9.91-15.21,19.4-.28,8,4.9,15.27,13.41,18.57A31.14,31.14,0,0,0,1239.17,675.55Zm28,5.36c2.56.21,4.15-1.71,5-4.49,4.62-14.54,9.19-29.1,13.87-43.62.84-2.61.35-4.55-1.91-6-2.88-1.87-7.65-.13-8.84,3.55q-7.1,22-13.89,44.14C1260.22,678.47,1262.2,680.78,1267.18,680.91Zm-56.38-46.53c2.32-.19,4.41-.74,4.78-3.08s-2-2.86-3.6-3.39a20.75,20.75,0,0,0-13.26,0c-2.23.76-3.27.76-4.74-1.48-2.56-3.92-9.23-3.64-10.61.33-3.46,9.88-6.58,19.89-9.79,29.86-1.09,3.37.77,5.08,3.75,5.74,3.74.83,6-1,7.21-4.47,2-5.83,3.86-11.68,6-17.46,2.41-6.64,6.18-8.76,13.16-7.58C1206.12,633.3,1208.55,633.9,1210.8,634.38Zm-54.64,23.27c3.56.15,4.9-2.22,5.84-5.08,3-9,5.88-18,8.87-27,.86-2.55,1.56-5.13-2-5.87-2.94-.61-6.57-2-8,2.28-3.37,9.72-6.68,19.47-9.72,29.29C1149.82,655.46,1151.89,657.71,1156.16,657.65Zm15.21-45.34c3.23,0,5.61-1.68,5.12-4-.76-3.65-4.65-2.85-7.47-3.22-2.42-.32-4.11,1-3.8,3.39C1165.7,612.25,1169.23,611.65,1171.37,612.31Z" transform="translate(0 -25.55)"/><path class="cls-2" d="M921.28,631.65c2.05-4.86,5.39-9.08,6.12-14.61.45-3.45,3.88-2.26,6.22-2.41,2.69-.17,3.13,1.56,3.41,3.83.56,4.65,1.87,9.21,1,14.13,1-.23,1.49-.28,1.5-.38.34-4.7,1.63-5.85,6-2.57,6.3,4.77,14.18,4.24,21.58,4.83,3.36.26,6.78.24,9.66,2,6.12,3.75,12.74,4.4,19.69,4.18a30.19,30.19,0,0,1,17.87,5.4c2.17,1.43,3.92,3.13,4.59,5.67,1,3.61,3.43,6.08,6.24,8.19,16.66,12.57,48.27,15.62,64.78,2.19,2.63-2.14,5.05-2.35,8.14-.62a71.67,71.67,0,0,0,37.4,8.93c6.14-.15,10.8,4.33,16.74,4.45,8.24.17,15.92,3.2,23.86,4.9,6.43,1.38,12.24.09,17.79-2.87,2.31-1.24,3.89-1.11,5.73.7,11.19,11,24.77,15.72,40.34,15,4.24-.19,8.17.93,12.16,2.31,6.9,2.4,13.93,4.53,21.44,2.82a7.45,7.45,0,0,1,5.69,1.24q27.19,16.54,56.82,4.77.11,11.22.2,22.43c0,2-.91,3.1-2.64,4.31-4.17,2.91-8.85,3.76-13.64,4.23-13.73,1.33-26.88-.31-38.73-8.08-2.29-1.49-4.67-2.67-7.49-2.11-7.67,1.54-14.85-.43-21.88-3.15a25.45,25.45,0,0,0-9.74-1.72c-15.69.24-30.08-3.18-41.37-15-2.08-2.18-4.1-2.24-6.63-.75-6.94,4.08-14.33,3.89-21.76,1.73-6.08-1.78-12.15-3.43-18.52-3.8a18.17,18.17,0,0,1-8.15-2.19c-3.59-2.1-7.45-2.63-11.53-2.55a66.57,66.57,0,0,1-34.85-9c-3.12-1.76-5.54-1.59-8.15.58-16.66,13.9-48.29,11.08-65.65-3.25a9.24,9.24,0,0,1-3.11-3.8c-3.24-10.46-11.92-13.1-21.05-13.76-8.19-.61-16.2-.66-23.5-5.18-2.54-1.57-5.78-1.34-8.79-1.45-5.65-.19-11.31-.31-16.7-2.45-6.7-2.67-11.36-7.1-12-14.54-.48-5.39-4.91-2.37-7.27-3.73-2.1-1.21-2.85,1.26-3.54,3-.51,1.27.07,3.6-1.93,3.53a5.12,5.12,0,0,1-4.74-3.11c-1-2.43-2.14-4.73-1.28-7.63C921.91,635,922.87,633.11,921.28,631.65Z" transform="translate(0 -25.55)"/><path class="cls-2" d="M590.5,607.68c2.74,1.88,2.76,5.19,3.9,7.83,13.49,31.19,36.49,53.23,66.16,68.75,23.1,12.08,47.53,19.73,73.73,21.45,9.62.63,19.19,2.2,28.85,1.75,30.38-1.4,59.65-7.29,87.33-20.55,16-7.68,31.11-16.6,44.53-28.27a23.48,23.48,0,0,1,2.89-1.88c1.91,7.62,1.56,15.53,3,23.22.45,2.42-1.65,3.43-3.12,4.72-28,24.53-60.8,39-97.24,45.62a215.17,215.17,0,0,1-102.73-5.87c-27.87-8.58-53.11-22.3-73.35-43.87C605.18,660,593.67,635.77,590.5,607.68Z" transform="translate(0 -25.55)"/><path d="M771,427.67c33.14.53,62.07,5.05,88.67,18.63C892.85,463.24,917.48,488.21,928,525c1.85,6.51,2.22,13.44,3.27,20.18.52,3.31-1,4.94-4.2,4.3-6-1.21-12.14-2.29-17.93-4.27-4.68-1.61-7-5.9-8.26-10.64-3.7-13.88-8.37-27.31-17-39.09a100.7,100.7,0,0,0-43.65-33.84,174.82,174.82,0,0,0-63.58-13.58c-27-.52-52.49,5.23-76.13,18.68A171.7,171.7,0,0,0,659,499.24c-27.25,29.34-32.89,75.72-13.1,110.52,4,7,8.43,13.56,14.34,19.1,2,1.87,3.12,2,4.25-.71C667,622,670,616,672.29,609.8c6.2-17.14,19.6-26.29,35.53-32.77,3.54-1.45,7.1-2.92,10.75-4,4.37-1.35,4.17-3.43,1.63-6.46-7.71-9.2-12.61-19.67-12.86-31.79-.37-18.31,6.65-33.22,21.19-44.64,16-12.52,33.72-20.46,54.16-20.17,22.14.31,43.13,4.86,58.91,22.32,15.47,17.11,16.67,41.56,4.14,61-10.27,15.93-24.21,26.22-42.28,31.35-4.73,1.34-4.94,2.49-1.22,5.78,19.9,17.58,17.39,32.85,10.47,52.32-1.72,4.85-4,9.49-6.12,14.2-.72,1.61-1.22,3.22,0,4.7s2.77.37,4.09-.13c20.84-7.93,40.66-17.59,56.63-33.68,3.51-3.54,7-7.15,10.16-11a11.44,11.44,0,0,1,11.55-4.2c5.58,1,11.11,2.19,16.66,3.3,3.21.64,4.41,1.82,2,5-12.06,15.49-25.86,29-42.59,39.53a192.55,192.55,0,0,1-59.89,25.32c-40.32,9.22-80.1,7.68-118.5-8.44a143.6,143.6,0,0,1-57.59-43.91c-18.75-23.65-27.06-50.17-22.83-80,4.9-34.53,21.91-62.27,49.33-83.87C688.64,443.47,733.51,427.5,771,427.67Zm-21.94,260c44.34-.1,77.65-9.18,106.15-26.26,16.74-10,31.51-22.22,42.82-38.38,2.65-3.79,1.5-5.11-2.19-6.1-5.87-1.57-10.77-.11-14.91,4.38-14.9,16.16-32.74,28.28-52.79,37-8,3.49-16.24,6.89-25.15,7.89-3,.34-4-.87-3.41-3.64a40.67,40.67,0,0,1,1.38-5.29q4.17-11.51,8.48-23c4.68-12.47,2.72-23.84-5.59-34.19-2.5-3.12-5-6.27-7.45-9.39-4.86-6.08-4.85-6,2.81-8.4,19.61-6.08,34.16-18.11,43.19-36.71,11.4-23.51,4.19-49.38-18.56-62.21-29.9-16.86-67-14.11-93.35,11.12-16.27,15.59-22,33.61-13.7,55.25,2.44,6.35,6.81,11.4,10.73,16.77,3.79,5.19,3.76,5.37-2.4,7.73-6.52,2.51-13,5.06-19.59,7.49a41.42,41.42,0,0,0-21.12,17.56,103.92,103.92,0,0,0-8.59,16.89c-2.37,6.05-4.76,12.09-7.44,18-2.08,4.57-4.77,5.24-8,1.88-21.9-22.47-36.46-47.89-32-80.82,3-22.52,11.6-42.47,26.75-59.63,14.44-16.37,32.41-27.31,52.24-35.78,33.08-14.13,67.17-18.88,102.56-11.33a160.27,160.27,0,0,1,48.06,19.14c12.79,7.53,23.91,16.92,32.67,28.92s13.91,25.71,17.36,40.06c1.06,4.38,3.38,6.89,7.93,7.77,8.47,1.64,8.68,1.59,7.74-7.23-3.36-31.52-19.92-55.41-44.33-74.11C850.41,441,817,431.38,781,430.56c-37.71-.87-72.87,8.35-104.77,28.91-26.49,17.08-46.44,39.58-57.77,69.36-11.62,30.54-8.42,60.13,5.73,88.84,7.85,15.93,20.41,28.22,34.51,38.57C688.48,678.09,722.47,687.18,749.05,687.62Z" transform="translate(0 -25.55)"/><path d="M1013.24,593.42c-5.58,0-9,2.34-11,7.64q-3.18,8.66-6.21,17.37c-1.42,4.07-4.24,5.51-8.2,4.1-4.11-1.45-2.88-4.56-1.88-7.47,2.06-6,4.27-11.89,6.13-17.92,1.76-5.66-.06-8.4-5.88-9.63-7.94-1.67-12.3.63-15.2,8.25-1.83,4.81-3.39,9.72-5.15,14.55a14.24,14.24,0,0,1-2.17,4.44c-2,2.29-4.68,2.47-7.27,1.11s-1.2-3.37-.56-5.22c3.13-9.12,6.33-18.21,9.31-27.38.88-2.69,2.37-4.13,5.14-4.53s4.58.47,5.56,3c1.2,3.19,3.45,1.74,5.4,1.22,6.31-1.69,13.47-3.06,17.92,2.08,5,5.79,9.45,6.41,15.84,3.56,2.67-1.2,5.92-.58,8.88,0,9.59,1.92,12.09,5.93,10.08,15.45-1.59,7.53-4.71,14.52-7.27,21.71-1.31,3.69-4.31,4.52-7.72,3.35-3.64-1.24-3.28-3.94-2.19-6.94,1.94-5.31,3.7-10.67,5.47-16C1025.17,597.47,1022.28,593.43,1013.24,593.42Z" transform="translate(0 -25.55)"/><path d="M1062.17,637.64a28.69,28.69,0,0,1-9.92-.61c-9.51-2.46-13-8.79-9.87-18,2.11-6.3,4.23-12.61,6.47-18.86a6.4,6.4,0,0,1,9.67-3.13c1.87,1.24,1.39,2.73.82,4.38-1.84,5.34-3.66,10.69-5.42,16.06-2.3,7-1,11.67,3.75,13.84,6.26,2.86,11.31,1.22,15-5.36,3.46-6.1,5-13,7.28-19.59,1.08-3.15,2.92-4.11,6-3.84,4.48.39,5.52,1.78,4.07,6.06q-4.89,14.4-9.88,28.76c-4.26,12.24-11.39,17-24.34,15.64-5.77-.59-11.49-1.87-16.63-4.86-1.62-.94-3.54-1.86-3-4,.54-2.39,2.82-2.5,4.84-2.6s3.83.93,5.56,2a22.08,22.08,0,0,0,12.89,3.15c1.91-.12,3.67-.58,4.86-2.13,1.59-2.06,4.48-4.21,3.35-6.75C1066.81,635.84,1063.74,638,1062.17,637.64Z" transform="translate(0 -25.55)"/><path d="M881.52,565.1c3.91.8,7.85,1.48,11.72,2.44,2.74.67,4.37.21,5.11-2.83.62-2.56,2-4.94,2.68-7.5,1.08-4.22,4-5,7.59-4.31,5.56,1.06,11.06,2.42,16.61,3.48,3.13.59,3.84,2.15,2.58,4.91-.34.76-.55,1.57-.84,2.35-4.14,11.18-3.45,9.45,6.93,11.71,10.93,2.38,9.36,1.63,6.08,10.88-3.8,10.7-2.47,11.8-15.44,8.55-1.45-.37-3-.49-4.39-.91-2.34-.69-3.74-.16-4.44,2.4s-2,5-2.67,7.5c-1.14,4.23-3.78,5.58-7.87,4.71-5.36-1.15-10.72-2.35-16.1-3.42-3.58-.7-4-2.69-3-5.83,1.16-3.51,4.74-7.37,2.75-10.45-1.75-2.7-6.75-1.87-10.26-2.84-1.28-.35-2.61-.55-3.9-.84-3.29-.73-4.45-2.48-3-5.79A106,106,0,0,0,875.42,569C876.39,565.82,878.5,565,881.52,565.1Zm12.34,32.49c.12,2.58.49,4.1,2.1,5.14,5.38,3.46,10.57,1.87,12.7-4a30.42,30.42,0,0,0,1.47-4.24c.81-4,3.42-5,7-4.31s7.2,1.39,10.78,2.12c1.78.37,3.42.44,3.88-1.82.77-3.78,4-7,2.69-11.17-.18-.55-1.76-.72-2.72-.94-3.08-.7-6.16-1.43-9.26-2-4.16-.77-5.74-2.9-4.17-7.06.88-2.34,1.56-4.74,2.3-7.13.33-1.08,1-2.67-.39-3.07-3.82-1.07-7.77-2.4-11.64-2.34-2.79,0-2.57,3.88-3.39,6.06-3.57,9.44-3.47,9.47-13.34,7.49-9.43-1.89-9.29-1.83-12.34,6.81-1.4,4-.11,5.52,3.7,6.12,3.12.5,6.18,1.36,9.28,2,3.56.69,4.76,2.48,3.33,6C894.92,593.55,894.35,596,893.86,597.59Z" transform="translate(0 -25.55)"/><path d="M1312.77,691.33c-8.22-.33-15.36-2.68-21.17-8.25a19,19,0,0,1,2.86-29.73c9.85-6.43,24.69-5.75,33.81,1.56a16.67,16.67,0,0,1,6.6,12.91c.22,6.23-2.45,8.65-8.59,7.48-8.33-1.6-16.67-3.19-24.89-5.24-4.62-1.15-4.86,1-4.24,4.33,1,5.46,6.71,9.45,14,10.11,3.56.33,6.92-1,10.41-1,1.9,0,4,.21,4.5,2.31.57,2.34-1.59,3-3.28,3.64A32.62,32.62,0,0,1,1312.77,691.33Zm-2.88-36.07a11,11,0,0,0-8.89,3.64c-2.67,3-2.28,4.52,1.52,5.41,5.31,1.23,10.67,2.29,16,3.39,1.72.36,3.43,1.25,4.73-1.08a4.83,4.83,0,0,0-.36-5.54C1319.79,656.41,1315,655.42,1309.89,655.26Z" transform="translate(0 -25.55)"/><path d="M1132.85,645.38h.5c3.27.23,8.34-1.41,8.46,3.38.09,4.07-4.93,3.51-8.06,3.7-9.38.55-18.18-1.42-26.09-6.71a24.12,24.12,0,0,1-.78-39.78c12.49-9.17,31.7-10,44.88-1.87,1.67,1,4.78,1.84,3.6,4.49-1.29,2.91-4.25,3.59-7.28,2.29-3.81-1.65-7.41-3.73-11.51-4.69-13.66-3.21-26.73,5.4-27.81,18.39-.85,10.25,4.19,17.32,14.19,19.88A29.51,29.51,0,0,0,1132.85,645.38Z" transform="translate(0 -25.55)"/><path d="M1239.18,675.55a31.15,31.15,0,0,1-12.7-2.27c-8.51-3.3-13.69-10.54-13.41-18.57.34-9.49,6-16.58,15.21-19.4,9.47-2.88,18.46-1.4,27.1,2.89,2.36,1.18,6.08,2.37,4.06,6s-5.19,2.75-8,.46c-4.71-3.77-9.89-5.22-15.87-3.52-8,2.28-12.53,8.79-11.29,16.4,1.21,7.43,7.91,12.33,16.13,11.73,2.49-.18,5-.63,7.45-.73,1.76-.08,3.51.64,3.8,2.54s-1.37,2.86-3,3.35A30.35,30.35,0,0,1,1239.18,675.55Z" transform="translate(0 -25.55)"/><path d="M1267.18,680.91c-5-.13-7-2.44-5.74-6.44q6.8-22.11,13.89-44.14c1.19-3.68,6-5.42,8.84-3.55,2.26,1.47,2.75,3.41,1.91,6-4.68,14.52-9.25,29.08-13.87,43.62C1271.33,679.2,1269.74,681.12,1267.18,680.91Z" transform="translate(0 -25.55)"/><path d="M1210.8,634.38c-2.25-.48-4.68-1.08-7.13-1.49-7-1.18-10.75.94-13.16,7.58-2.11,5.78-4,11.63-6,17.46-1.18,3.49-3.47,5.3-7.21,4.47-3-.66-4.84-2.37-3.75-5.74,3.21-10,6.33-20,9.79-29.86,1.38-4,8.05-4.25,10.61-.33,1.47,2.24,2.51,2.24,4.74,1.48a20.75,20.75,0,0,1,13.26,0c1.64.53,4,1,3.6,3.39S1213.12,634.19,1210.8,634.38Z" transform="translate(0 -25.55)"/><path d="M1156.16,657.66c-4.27.05-6.34-2.2-5.06-6.34,3-9.82,6.35-19.57,9.72-29.29,1.48-4.3,5.11-2.89,8-2.28,3.56.74,2.86,3.32,2,5.87-3,9-5.92,18-8.87,27C1161.06,655.43,1159.72,657.8,1156.16,657.66Z" transform="translate(0 -25.55)"/><path d="M1171.37,612.31c-2.14-.66-5.67-.06-6.15-3.85-.31-2.37,1.38-3.71,3.8-3.39,2.82.37,6.71-.43,7.47,3.22C1177,610.63,1174.6,612.34,1171.37,612.31Z" transform="translate(0 -25.55)"/><path class="cls-2" d="M749.05,687.62c-26.58-.44-60.57-9.53-90.32-31.38-14.1-10.35-26.66-22.64-34.51-38.57-14.15-28.71-17.35-58.3-5.73-88.84,11.33-29.78,31.28-52.28,57.77-69.36,31.9-20.56,67.06-29.78,104.77-28.91C817,431.38,850.41,441,879.26,463c24.41,18.7,41,42.59,44.33,74.11.94,8.82.73,8.87-7.74,7.23-4.55-.88-6.87-3.39-7.93-7.77-3.45-14.35-8.58-28-17.36-40.06s-19.88-21.39-32.67-28.92a160.27,160.27,0,0,0-48.06-19.14c-35.39-7.55-69.48-2.8-102.56,11.33-19.83,8.47-37.8,19.41-52.24,35.78-15.15,17.16-23.72,37.11-26.75,59.63-4.42,32.93,10.14,58.35,32,80.82,3.28,3.36,6,2.69,8-1.88,2.68-5.9,5.07-11.94,7.44-18a103.92,103.92,0,0,1,8.59-16.89,41.42,41.42,0,0,1,21.12-17.56c6.56-2.43,13.07-5,19.59-7.49,6.16-2.36,6.19-2.54,2.4-7.73-3.92-5.37-8.29-10.42-10.73-16.77-8.31-21.64-2.57-39.66,13.7-55.25,26.33-25.23,63.45-28,93.35-11.12,22.75,12.83,30,38.7,18.56,62.21-9,18.6-23.58,30.63-43.19,36.71-7.66,2.38-7.67,2.32-2.81,8.4,2.49,3.12,5,6.27,7.45,9.39,8.31,10.35,10.27,21.72,5.59,34.19q-4.3,11.46-8.48,23a40.67,40.67,0,0,0-1.38,5.29c-.58,2.77.37,4,3.41,3.64,8.91-1,17.13-4.4,25.15-7.89,20-8.73,37.89-20.85,52.79-37,4.14-4.49,9-6,14.91-4.38,3.69,1,4.84,2.31,2.19,6.1-11.31,16.16-26.08,28.35-42.82,38.38C826.7,678.44,793.39,687.52,749.05,687.62Z" transform="translate(0 -25.55)"/><path class="cls-2" d="M893.86,597.59c.49-1.6,1.06-4,2-6.33,1.43-3.52.23-5.31-3.33-6-3.1-.61-6.16-1.47-9.28-2-3.81-.6-5.1-2.16-3.7-6.12,3.05-8.64,2.91-8.7,12.34-6.81,9.87,2,9.77,1.95,13.34-7.49.82-2.18.6-6,3.39-6.06,3.87-.06,7.82,1.27,11.64,2.34,1.42.4.72,2,.39,3.07-.74,2.39-1.42,4.79-2.3,7.13-1.57,4.16,0,6.29,4.17,7.06,3.1.58,6.18,1.31,9.26,2,1,.22,2.54.39,2.72.94,1.34,4.19-1.92,7.39-2.69,11.17-.46,2.26-2.1,2.19-3.88,1.82-3.58-.73-7.17-1.46-10.78-2.12s-6.2.29-7,4.31a30.42,30.42,0,0,1-1.47,4.24c-2.13,5.82-7.32,7.41-12.7,4C894.35,601.69,894,600.17,893.86,597.59Z" transform="translate(0 -25.55)"/><path class="cls-1" d="M1309.89,655.26c5.13.16,9.9,1.15,13,5.82a4.83,4.83,0,0,1,.36,5.54c-1.3,2.33-3,1.44-4.73,1.08-5.34-1.1-10.7-2.16-16-3.39-3.8-.89-4.19-2.46-1.52-5.41A11,11,0,0,1,1309.89,655.26Z" transform="translate(0 -25.55)"/></svg>