<svg id="Layer_1" data-name="Layer 1" xmlns="http://www.w3.org/2000/svg" viewBox="0 0 618.99 276.87"><defs><style>.cls-1{fill:#d4f8ff;}.cls-2{fill:#00fe00;}.cls-3{fill:#010101;}.cls-4{fill:#030303;}.cls-5{fill:#060606;}</style></defs><path class="cls-1" d="M1049.33,514.92c-3.89.51-6.09,2.83-7.19,7.22,5.45,0,10.4,0,15.36,0,.9,0,2.1.47,2.61-.7s-.31-2.16-1-3.09C1056.58,515.05,1053.14,514.43,1049.33,514.92Z" transform="translate(-489.46 -389)"/><path class="cls-1" d="M733.55,558.71c-3,1.66-4,5-4.43,6.15-4.26,12.71-16.85,29.83-21,34.46a107.71,107.71,0,0,1-20,17.24c-1.88,1.26-4.38,1.59-6.6,2.35-.53-2.15-1.47-4.29-1.52-6.45-.19-7.63-.26-15.28,0-22.9.39-13.49-5.16-23.87-15.83-31.82-2.76-2-5.25-4.47-7.86-6.72-3.14-2.71-2.46-5.06.67-7.21a53.15,53.15,0,0,0,5.63-4C675,528.71,680.34,515,680.14,498.06a51.09,51.09,0,0,0-14.45-35.73c-10-10.63-22.87-14.63-37.7-14.48-27.71.29-45,21.91-49.14,45.22-2.34,13.33,2,26,9.68,37,3.87,5.55,9.61,9.84,14.72,14.47,2.15,2,3,3.62.62,5.69-4.23,3.68-8.38,7.48-12.9,10.78-7.53,5.49-10.75,13.7-12,22-1.58,10.21-1,20.77-1.28,31.17-.16,5.45-2.27,6.79-6.68,3.82-32.51-21.83-49.7-52.39-49.8-91.52-.08-30.23,11.24-56.49,33.57-77,6.82-6.27,24.51-22.59,52.47-28.06a109.58,109.58,0,0,1,38.08-.23,114.21,114.21,0,0,1,20.53,5.53A106.13,106.13,0,0,1,693,441.08c14.25,10.61,25.3,24.83,33.43,42,.73,1.55,2.31,3.46,3.78,3.75,3,.59,6.14.17,9.43.17-11.37-39.5-57.37-83.74-121.52-78.52C553,413.8,505.26,470.32,510.05,537c4.42,61.63,57.5,113.78,127.31,109.15,58.22-3.85,98.51-50.57,105-87.56C740.22,557.83,736.6,557,733.55,558.71Z" transform="translate(-489.46 -389)"/><path class="cls-1" d="M752.14,517c-9.9,0-9.88,0-9.93-9.64,0-1.92-.16-3.85-.24-5.69H731.55c0,3.71-.13,7,0,10.32.19,3.92-1.63,5.41-5.38,5.25-3.1-.14-6.21,0-9.55,0v10.65h8c6.9,0,7.64.79,7.68,7.77,0,7.92,0,7.93,8.09,7.31a14.69,14.69,0,0,0,2.56-.71c0-3.32.09-6.45,0-9.58-.13-3.64,1.57-5.13,5.12-5,3.24.11,6.48,0,9.68,0V517Z" transform="translate(-489.46 -389)"/><path class="cls-1" d="M1043.68,492.57c-1.24.31-3.46,1.46-4.16-1.58-2.12-9.08-9.25-12.44-16.25-12.94-9.62-.69-16.09,3-19.78,11.16-.76,1.66-1,2.74-3.11,2.58-6.16-.45-12.23,0-18,2.51a1.71,1.71,0,0,1-1.75,0c-6.17-3.27-12.62-3.09-19.14-1.41-2.71.7-4.51-.18-5.52-2.67-3.06-7.6-9.08-10.7-16.79-10.18-8.81.61-17.68,2.16-26.43,1.23-9.84-1.05-17.66,2.48-25.47,7.56-2.12,1.38-3.31,4.48-6.47,4.12-5.37-.61-10.64-.36-15.44,2.33-1.5.84-2.14-.29-3-.65a25.33,25.33,0,0,0-17.83-.75,7.61,7.61,0,0,1-5.46,0c-6.46-2.14-13.18-3.49-19.81-1-3.34,1.24-6.48.63-9.32-.33a20.75,20.75,0,0,0-11.06-.48,44.38,44.38,0,0,1-10.68.68c-6.79-.17-12.61,1.57-16.54,7.59-.84,1.28-1.81,1.75-3.14.39a6.63,6.63,0,0,0-4.24-2c-2.71-.21-3.59-1.72-4.29-4.31-1.19-4.49-.69-9.18-2.39-13.62-9.23-24-23-44.71-43.28-60.92-22.48-18-48.31-27.4-76.59-30.22a118.09,118.09,0,0,0-40.07,2.93c-39.38,9.75-70.5,31-90.41,67-14.35,25.95-20.16,53.65-16.88,83.35a140.41,140.41,0,0,0,13,45.64,134.2,134.2,0,0,0,62.26,63.2,138.61,138.61,0,0,0,63.17,14.16c14.46-.25,42.29-2.78,70.46-19.65A137.66,137.66,0,0,0,733.56,617a136.08,136.08,0,0,0,23.28-40.37c3-8.32,7-16.78,4.6-26.42-.59-2.34,3.46-1.67,5.21-2.69,1.1-.64,1.79-1.26,2.36.68,3.37,11.57,14,14.4,24.81,11.36,4-1.13,7.57-1.37,11.6.38,3.36,1.47,7.31,1.15,10.94,0,4-1.25,7.74-1.78,12.12-.57s7.8,2.51,9.79,6.9a10.18,10.18,0,0,0,4.2,4c14.93,8.55,39.33,7,49.34-10.33,1.1-1.91,1.61-2.36,4-1.5,9.69,3.55,19.55,4.66,29.67,1.3a10.35,10.35,0,0,1,6.75.26c3.17,1.21,6.6.94,9.67.36a28.16,28.16,0,0,1,9.43,0c6.67.93,13.53.14,18.11-5.36,2-2.43,2.51-2.27,4.63-.65,10.81,8.29,22.83,9.11,35.44,5.17a10.36,10.36,0,0,1,5.94.25c4,1.09,7.82.47,11.82.21,3.12-.2,5.21-3.56,9-1.63,8.18,4.12,17.1,4.31,25.85,2.1,9.58-2.43,17.4-7.44,19.4-18,.83-4.38,1.57-8.83,2.15-13.22C1086.76,505.9,1065.71,487.06,1043.68,492.57ZM749,558.33a123.24,123.24,0,0,1-26.94,51,128.7,128.7,0,0,1-33.25,27,126.17,126.17,0,0,1-60.51,15.91c-36.43-.08-63-16.63-75.48-26.2a125.37,125.37,0,0,1-35.92-43.27,123,123,0,0,1-12.11-44.85c-2.81-34.51,6.85-65.4,29.43-91.74,20-23.28,45.33-37.65,75.79-41.88,40.24-5.59,75.48,5.66,105.06,33.63,14.21,13.44,24.27,29.73,30.83,48.15.39,1.11,1.5,3.35.51,4.8-.86,1.27-2.86,1.31-5.52,1.28-7-.08-10.42-.11-11.74-.52-6.87-2.14-10.08-10.13-11.56-12.9-18.79-35.27-49.68-53.57-89.53-53.41-39.65.17-70,18.81-89.13,53.65-15.41,28-16.39,57.51-4.59,87.3,7.32,18.46,23.7,38.18,37.75,45.51,1.7-12-1.13-24.09,2.94-36.09,4.21-12.4,13-20.2,23.1-27.9-10.91-8.49-18.5-18.56-22.31-31.63-5.75-19.66-1.88-37.25,10.45-53,10.51-13.42,24.2-20.47,41.87-20.8,10.55-.19,20,1.71,28.39,6.17A55.28,55.28,0,0,1,670,459c3,3.19,15.16,16.64,16.27,36.62a65.78,65.78,0,0,1-3,22.34,49.11,49.11,0,0,1-3.89,10.18,46.82,46.82,0,0,1-12.55,15c-1.81,1.43-3.71,2.75-6.65,4.93,27.33,14.72,26.39,38.83,24.55,63.28l1.53.76c5.9-5.34,12.25-10.28,17.62-16.12a98.87,98.87,0,0,0,22.33-39.44c.47-1.6,3-3.47,4.71-3.67,4.59-.51,9.27-.12,13.92-.19C749,552.59,750,554.45,749,558.33ZM758.72,533c-3.29-.1-6.58,0-10.51,0,0,4.19-.05,7.66,0,11.13.07,3.15-1.41,4.54-4.52,4.5-4.32-.07-8.64-.06-13,0-3,0-4.17-1.42-4.09-4.3.08-3.3,0-6.6,0-10.72-4.09,0-7.84-.09-11.57,0-3.2.1-4.5-1.32-4.41-4.47.11-4.14.11-8.3,0-12.44-.1-3.46,1.54-4.77,4.85-4.67s6.88,0,10.77,0c0-3.95.12-7.4,0-10.84s1.29-5.24,4.94-5.13c4,.11,8,.1,12,0,3.41-.09,4.82,1.44,4.67,4.82s0,6.56,0,10.59c4.06,0,7.65.05,11.24,0,2.91-.05,4.28,1.31,4.27,4.2,0,4.32,0,8.63,0,13C763.4,531.78,761.81,533,758.72,533Zm78.09,8.39c0,2.63-1.56,4.47-4.34,4.5-3.08,0-4.48-2-4.52-4.81-.08-6,0-12-.07-17.93s-2-8.25-6.81-8.26c-5.16,0-8.28,2.89-8.44,8.31-.17,5.64-.09,11.29,0,16.94,0,3.25-.93,5.78-4.58,5.72-3.33,0-4.4-2.56-4.42-5.51,0-5.81,0-11.62,0-17.43s-1.87-7.94-6.45-8c-5.27-.11-8.46,2.71-8.63,8.09-.2,5.81-.11,11.62,0,17.43,0,2.16-.38,4-2.45,5s-4.19.78-5.56-1.5q-.13-17.08-.26-34.17c3.79-3.91,6.1-3.41,8.56,1.86,9.32-7.44,16.48-6.95,23,1.86,3.78-4.82,8.49-7.66,14.85-6.75,5.31.75,8.57,3.61,9.52,9.32C837.53,524.38,836.89,532.88,836.81,541.34Zm41.72.29c0,11.29-3.22,15.44-14.11,18.35l-8.09.06a44.41,44.41,0,0,1-6.22-1.64,4.11,4.11,0,0,1-2.4-5.74c1-2.54,3.09-3.37,5.71-2.3a16.94,16.94,0,0,0,8.69,1.56c5.35-.67,7.19-2.76,7.21-8.6-2.16.84-4,2.24-6.28,2.76-10.32,2.3-17.39-3.19-17.47-13.77-.05-6.46,0-12.93,0-19.4,0-3.28,1-5.73,4.63-5.65,3.35.08,4.31,2.39,4.26,5.48-.11,5.64-.09,11.28,0,16.92.08,5.85,2.4,8.56,7.25,8.74,5,.19,7.9-2.64,8.14-8.52.23-5.46.1-10.94.05-16.41,0-3.26.4-6.3,4.55-6.21,3.79.09,4.19,2.9,4.17,6C878.48,522.72,878.55,532.18,878.53,541.63Zm44.21,2.75c-14.7,6.37-36.93-.88-36.73-23.56A25.68,25.68,0,0,1,922.33,497c2.71,1.18,4.89,2.82,3.65,6s-3.79,3.56-7,2.33c-6.67-2.56-13.21-2.23-18.56,2.92-5.15,5-5.8,11.32-4.12,18,2.11,8.37,9.9,12.94,18.91,11.13a32.11,32.11,0,0,0,4.25-1.32c3-1,5.44-.29,6.57,2.63S925.3,543.27,922.74,544.38ZM937,545.8c-3.6.1-4.66-2.43-4.65-5.66q.06-13.64,0-27.26c0-3.26,1-5.68,4.63-5.63s4.44,2.72,4.4,5.87c-.07,4.45,0,8.92,0,13.38s-.06,8.92,0,13.37C941.39,543.05,940.55,545.7,937,545.8Zm-.27-42.92c-2.92,0-4.6-1.13-4.58-4.35,0-3,1.11-4.53,4.34-4.52,3,0,5.29.56,5,4.11C941.86,501.85,939.71,502.85,936.68,502.88Zm38.5,8.66c-.33,2.85-2.42,3.64-5.07,3.52-9.06-.39-11.26,1.77-11.3,11,0,4.8,0,9.61,0,14.41,0,3-1.16,5.38-4.49,5.39s-4.5-2.33-4.52-5.36c0-4.63,0-9.27,0-13.91s0-9.27,0-13.91c0-2.28.53-4.36,3-5.17s4.42-.11,5.45,2.14c1.22,2.65,2.07.4,2.8-.14a13.33,13.33,0,0,1,9.77-2.85C973.66,506.92,975.52,508.5,975.18,511.54Zm30.29,33.36c-14.83,6-28.33-2.92-28.19-18.64.4-16.21,13.89-23.23,28.38-18.2a7.79,7.79,0,0,1,2.15,1.22c2.24,1.76,3,4,1.52,6.56-1.6,2.88-3.88,2-5.92.72-4.11-2.49-8.29-2.6-12.2,0-4.15,2.7-5.4,7-4.89,11.75a11.12,11.12,0,0,0,16.19,9c2.85-1.38,5.87-3.05,7.54.82S1008.56,543.65,1005.47,544.9Zm20.78-5.62c0,3.49-.52,6.66-4.83,6.5-4.09-.15-4.21-3.37-4.2-6.55,0-13.26.13-26.52-.05-39.78,0-3.48.75-6,4.07-7.38h1c3.11,1.29,4.11,3.57,4.07,6.93C1026.14,512.43,1026.2,525.85,1026.25,539.28Zm43.29-12.1c-1.59,3-4.23,2.6-6.74,2.6-6.48,0-13,0-19.45.05a2.36,2.36,0,0,0-.85.35c1.18,7.57,9.82,9.57,15.61,7.38,2.57-1.29,6.69-4.22,8.7-.4,1.29,2.48.2,4.34-2,5.94-11,8.2-28,2.25-31.25-11-3.61-14.84,7.78-28.14,21.68-25.13,8.65,1.87,13.42,8.09,14.71,17.48C1069.84,525.39,1069.69,526.25,1069.54,527.18Z" transform="translate(-489.46 -389)"/><path class="cls-2" d="M1386.32,583.87" transform="translate(-489.46 -389)"/><path d="M552.83,626.05a125.17,125.17,0,0,1-35.91-43.27,122.78,122.78,0,0,1-12.11-44.85c-2.82-34.51,6.84-65.4,29.42-91.74,20-23.28,45.33-37.65,75.79-41.88,40.25-5.59,75.49,5.66,105.06,33.63,14.22,13.44,24.27,29.73,30.83,48.15.4,1.11,1.5,3.35.52,4.8-.87,1.27-2.87,1.31-5.53,1.28-6.94-.08-10.42-.11-11.73-.52-6.88-2.14-10.09-10.13-11.57-12.9-18.79-35.27-49.68-53.57-89.53-53.41-39.65.17-70,18.81-89.13,53.65-15.41,28-16.39,57.51-4.58,87.3,7.32,18.46,23.69,38.18,37.74,45.51,1.7-12-1.13-24.09,2.94-36.09,4.22-12.4,13-20.2,23.1-27.9-10.91-8.49-18.49-18.56-22.31-31.63-5.74-19.66-1.88-37.25,10.45-53,10.52-13.42,24.21-20.47,41.88-20.8,10.54-.19,20,1.71,28.39,6.17A55.35,55.35,0,0,1,670.06,459c3,3.18,15.16,16.63,16.26,36.61a65.78,65.78,0,0,1-3,22.34,49,49,0,0,1-3.88,10.18,46.85,46.85,0,0,1-12.56,15c-1.81,1.43-3.7,2.75-6.64,4.93,27.33,14.72,26.39,38.83,24.55,63.28l1.53.76c5.9-5.34,12.24-10.28,17.61-16.11a98.88,98.88,0,0,0,22.34-39.45c.47-1.6,3-3.47,4.7-3.67,4.59-.51,9.28-.12,13.93-.19,4.15-.06,5.15,1.8,4.13,5.68a123.33,123.33,0,0,1-26.93,51,128.88,128.88,0,0,1-33.25,27,126.22,126.22,0,0,1-60.52,15.91C591.88,652.17,565.35,635.62,552.83,626.05Zm186.84-139c-11.37-39.5-57.37-83.74-121.51-78.52C553,413.84,505.33,470.36,510.11,537c4.43,61.63,57.5,113.78,127.32,109.15,58.21-3.85,98.5-50.57,105-87.56-2.13-.71-5.75-1.53-8.8.17s-4,5-4.42,6.16c-4.27,12.7-16.85,29.82-21.05,34.45a107.39,107.39,0,0,1-20,17.24c-1.88,1.26-4.38,1.59-6.59,2.35-.54-2.15-1.47-4.29-1.53-6.45-.18-7.63-.25-15.28,0-22.9.4-13.49-5.15-23.87-15.83-31.82-2.75-2-5.24-4.47-7.85-6.72-3.14-2.71-2.47-5.06.66-7.2a52.64,52.64,0,0,0,5.63-4C675,528.75,680.4,515,680.2,498.1a51.08,51.08,0,0,0-14.44-35.73c-10-10.63-22.87-14.63-37.71-14.48-27.7.29-45,21.91-49.13,45.22-2.34,13.33,2,26,9.68,37,3.87,5.55,9.61,9.84,14.72,14.47,2.15,2,3,3.62.61,5.69-4.22,3.68-8.37,7.48-12.89,10.78-7.54,5.49-10.76,13.7-12,22-1.58,10.21-1,20.77-1.28,31.17-.16,5.45-2.27,6.79-6.69,3.82-32.5-21.83-49.69-52.39-49.8-91.52-.08-30.23,11.25-56.49,33.58-77,6.81-6.27,24.5-22.59,52.47-28.06a109.5,109.5,0,0,1,38.07-.23,114.24,114.24,0,0,1,20.54,5.53A106.13,106.13,0,0,1,693,441.12c14.25,10.61,25.29,24.83,33.42,42,.74,1.55,2.31,3.46,3.78,3.75C733.22,487.49,736.39,487.07,739.67,487.07Zm368.78,165.74" transform="translate(-489.46 -389)"/><path d="M748.28,533c0,4.19-.06,7.66,0,11.13.06,3.15-1.42,4.54-4.53,4.5-4.31-.07-8.63-.06-12.95,0-3,0-4.16-1.42-4.09-4.3.09-3.3,0-6.6,0-10.72-4.09,0-7.83-.09-11.57,0-3.2.1-4.49-1.32-4.41-4.47.11-4.14.11-8.3,0-12.44-.09-3.46,1.54-4.77,4.85-4.67s6.88,0,10.78,0c0-3.95.11-7.4,0-10.84s1.3-5.24,4.94-5.13c4,.11,8,.1,12,0,3.41-.09,4.82,1.44,4.68,4.82s0,6.56,0,10.59c4.05,0,7.64.05,11.23,0,2.91-.05,4.29,1.31,4.27,4.2,0,4.32,0,8.63,0,13,0,3.19-1.55,4.45-4.63,4.36C755.5,532.89,752.21,533,748.28,533Zm-31.57-5h8c6.89,0,7.64.79,7.67,7.77,0,7.92.05,7.93,8.1,7.31a14.93,14.93,0,0,0,2.56-.71c0-3.32.09-6.45,0-9.58-.13-3.64,1.58-5.13,5.12-5,3.24.11,6.49,0,9.68,0V517.07H752.2c-9.89,0-9.88,0-9.92-9.64,0-1.92-.16-3.84-.25-5.69H731.61c0,3.71-.12,7,0,10.32.19,3.92-1.63,5.41-5.39,5.25-3.1-.14-6.2,0-9.55,0Z" transform="translate(-489.46 -389)"/><path d="M1022.3,492.11c3.1,1.29,4.1,3.57,4.06,6.93-.16,13.43-.1,26.86,0,40.28,0,3.49-.52,6.66-4.84,6.5-4.08-.15-4.21-3.37-4.2-6.55.05-13.26.13-26.52,0-39.78-.05-3.48.75-6,4.07-7.38Z" transform="translate(-489.46 -389)"/><path d="M780.53,543.91q-.12-17.08-.26-34.17c3.79-3.91,6.1-3.4,8.56,1.86,9.33-7.44,16.48-7,23,1.86,3.78-4.82,8.49-7.66,14.84-6.75,5.31.75,8.57,3.61,9.52,9.32,1.39,8.39.75,16.89.68,25.35,0,2.63-1.56,4.47-4.34,4.5-3.09,0-4.48-2-4.52-4.81-.09-6,0-12-.08-17.93s-2-8.25-6.8-8.26c-5.17,0-8.28,2.89-8.44,8.31-.17,5.64-.1,11.29,0,16.94,0,3.25-.94,5.78-4.58,5.72-3.33-.05-4.4-2.56-4.42-5.51,0-5.81,0-11.62,0-17.43s-1.87-7.94-6.46-8c-5.27-.11-8.45,2.71-8.63,8.09-.19,5.81-.1,11.62,0,17.43,0,2.16-.38,4.05-2.44,5S781.91,546.19,780.53,543.91Z" transform="translate(-489.46 -389)"/><path class="cls-3" d="M864.48,560l-8.09.06a44.41,44.41,0,0,1-6.22-1.64,4.12,4.12,0,0,1-2.4-5.74c1-2.54,3.09-3.37,5.71-2.3a17,17,0,0,0,8.69,1.56c5.35-.67,7.2-2.76,7.21-8.6-2.16.84-4,2.24-6.28,2.76-10.31,2.3-17.39-3.19-17.47-13.77,0-6.46,0-12.93,0-19.4,0-3.28,1-5.73,4.62-5.65,3.36.08,4.32,2.4,4.26,5.48-.1,5.64-.09,11.28,0,16.92.08,5.85,2.4,8.56,7.26,8.74s7.89-2.64,8.14-8.51c.22-5.47.09-10.95,0-16.42,0-3.26.41-6.3,4.55-6.21,3.8.09,4.2,2.9,4.17,6-.09,9.45,0,18.91,0,28.36C878.58,553,875.37,557.11,864.48,560Z" transform="translate(-489.46 -389)"/><path class="cls-3" d="M1055.36,507c-13.91-3-25.3,10.29-21.69,25.13,3.23,13.24,20.23,19.19,31.26,11,2.15-1.6,3.24-3.46,1.94-5.94-2-3.82-6.13-.89-8.69.4-5.8,2.19-14.43.19-15.61-7.38a2.32,2.32,0,0,1,.84-.35c6.49,0,13,0,19.46,0,2.5,0,5.14.37,6.73-2.6.16-.93.3-1.79.46-2.72C1068.78,515.11,1064,508.89,1055.36,507Zm4.81,14.44c-.51,1.17-1.71.69-2.61.7-5,0-9.9,0-15.36,0,1.1-4.39,3.3-6.71,7.2-7.22s7.25.13,9.76,3.41C1059.87,519.3,1060.71,520.23,1060.17,521.46Z" transform="translate(-489.46 -389)"/><path d="M886.07,520.86a25.68,25.68,0,0,1,36.32-23.81c2.71,1.18,4.9,2.82,3.66,6s-3.8,3.56-7,2.33c-6.68-2.56-13.22-2.23-18.57,2.92-5.14,5-5.8,11.32-4.12,18,2.12,8.37,9.9,12.94,18.92,11.13a32.11,32.11,0,0,0,4.25-1.32c3-1,5.43-.29,6.56,2.63s-.73,4.6-3.3,5.71C908.11,550.8,885.88,543.54,886.07,520.86Z" transform="translate(-489.46 -389)"/><path class="cls-3" d="M977.34,526.3c.4-16.21,13.89-23.23,28.38-18.2a7.52,7.52,0,0,1,2.15,1.22c2.25,1.76,3,4,1.53,6.56-1.61,2.88-3.88,2-5.93.72-4.1-2.49-8.29-2.6-12.2-.05-4.14,2.7-5.39,7-4.88,11.75a11.11,11.11,0,0,0,16.19,9c2.84-1.38,5.87-3,7.53.82s-1.49,5.61-4.58,6.86C990.7,551,977.2,542,977.34,526.3Z" transform="translate(-489.46 -389)"/><path class="cls-4" d="M949.85,526.59c0-4.64,0-9.27,0-13.91,0-2.28.52-4.36,3-5.17s4.41-.11,5.44,2.14c1.23,2.65,2.08.4,2.8-.14a13.34,13.34,0,0,1,9.77-2.85c2.86.3,4.72,1.88,4.37,4.92-.32,2.85-2.41,3.64-5.06,3.52-9.06-.39-11.27,1.77-11.3,11,0,4.8,0,9.61,0,14.41,0,3-1.17,5.38-4.49,5.39s-4.51-2.33-4.52-5.36C949.83,535.87,949.85,531.23,949.85,526.59Z" transform="translate(-489.46 -389)"/><path class="cls-3" d="M941.37,526.54c0,4.46-.06,8.92,0,13.38.06,3.17-.77,5.82-4.38,5.92s-4.65-2.43-4.64-5.66c0-9.09,0-18.17,0-27.26,0-3.26,1-5.68,4.64-5.63s4.44,2.72,4.39,5.87C941.33,517.62,941.37,522.08,941.37,526.54Z" transform="translate(-489.46 -389)"/><path class="cls-5" d="M941.51,498.17c.41,3.72-1.73,4.72-4.76,4.75s-4.61-1.13-4.58-4.35c0-3,1.11-4.53,4.34-4.52C939.55,494.06,941.8,494.61,941.51,498.17Z" transform="translate(-489.46 -389)"/></svg>