<svg xmlns="http://www.w3.org/2000/svg" xmlns:xlink="http://www.w3.org/1999/xlink" xmlns:lucid="lucid" width="1525.6" height="1080"><g transform="translate(-220 -120)" lucid:page-tab-id="0_0"><path d="M0 0h1870.87v1322.83H0z" fill="#fff"/><path d="M360 226c0-3.3 2.7-6 6-6h1208c3.3 0 6 2.7 6 6v948c0 3.3-2.7 6-6 6H366c-3.3 0-6-2.7-6-6z" stroke="#5e5e5e" fill="#cfe4ff"/><use xlink:href="#a" transform="matrix(1,0,0,1,368,228) translate(529.4691358024692 17.77777777777778)"/><path d="M1140 739h240v60h-240z" fill="none"/><use xlink:href="#b" transform="matrix(1,0,0,1,1140,739.0131613690808) translate(38.02469135802468 34.44444444444444)"/><path d="M800 140h350.6v60H800z" fill="none"/><use xlink:href="#c" transform="matrix(1,0,0,1,800,140) translate(13.385802469135797 34.888888888888886)"/><use xlink:href="#d" transform="matrix(1,0,0,1,800,140) translate(123.3179012345679 34.888888888888886)"/><use xlink:href="#e" transform="matrix(1,0,0,1,800,140) translate(174.85493827160494 34.888888888888886)"/><use xlink:href="#f" transform="matrix(1,0,0,1,800,140) translate(239.97222222222223 34.888888888888886)"/><path d="M1140 517.8h240v60h-240z" fill="none"/><use xlink:href="#g" transform="matrix(1,0,0,1,1140,517.8110806362984) translate(41.69753086419753 34.44444444444444)"/><path d="M299.75 619.75c0 10.9-8.84 19.75-19.75 19.75-10.9 0-19.75-8.84-19.75-19.75 0-10.9 8.84-19.75 19.75-19.75 10.9 0 19.75 8.84 19.75 19.75z" stroke="#5e5e5e" fill="#fff"/><path d="M280 639.5v49.3c0 3.3 1.44 8.27 3.2 11.07L320 758m-40-63.2L240 758m0-98.75h80" stroke="#5e5e5e" fill="none"/><path d="M240 606c0-3.3 2.7-6 6-6h68c3.3 0 6 2.7 6 6v168c0 3.3-2.7 6-6 6h-68c-3.3 0-6-2.7-6-6z" fill="none"/><use xlink:href="#h" transform="matrix(1,0,0,1,160,758) translate(89.19753086419753 17.77777777777778)"/><path d="M1699.75 608.76c0 10.9-8.84 19.75-19.75 19.75-10.9 0-19.75-8.83-19.75-19.74 0-10.9 8.84-19.75 19.75-19.75 10.9 0 19.75 8.86 19.75 19.76z" stroke="#5e5e5e" fill="#fff"/><path d="M1680 628.5v49.3c0 3.33 1.44 8.28 3.2 11.08L1720 747m-40-63.2l-40 63.2m0-98.74h80" stroke="#5e5e5e" fill="none"/><path d="M1640 595c0-3.3 2.7-6 6-6h68c3.3 0 6 2.7 6 6v168c0 3.33-2.7 6-6 6h-68c-3.3 0-6-2.67-6-6z" fill="none"/><use xlink:href="#i" transform="matrix(1,0,0,1,1560,747.0131613690808) translate(74.59876543209876 17.77777777777778)"/><path d="M1260 679c0 33.15-35.82 60-80 60s-80-26.85-80-60c0-33.12 35.82-60 80-60s80 26.88 80 60z" stroke="#5e5e5e" fill="#fff"/><use xlink:href="#j" transform="matrix(1,0,0,1,1100,619.0131613690808) translate(52.029999999999994 63.15)"/><path d="M1619.5 679H1261M1619.5 679h.5" stroke="#5e5e5e" fill="none"/><path d="M1261 679.5h-.52l.02-.48v-.5h.5z" stroke="#5e5e5e" stroke-width=".05" fill="#5e5e5e"/><path d="M1260 420c0 33.14-35.82 60-80 60s-80-26.86-80-60 35.82-60 80-60 80 26.86 80 60z" stroke="#5e5e5e" fill="#fff"/><use xlink:href="#k" transform="matrix(1,0,0,1,1100,360) translate(49.05499999999999 44.4)"/><use xlink:href="#l" transform="matrix(1,0,0,1,1100,360) translate(17.12999999999999 66)"/><path d="M720 520c0 33.14-35.82 60-80 60s-80-26.86-80-60 35.82-60 80-60 80 26.86 80 60z" stroke="#5e5e5e" fill="#fff"/><use xlink:href="#m" transform="matrix(1,0,0,1,560,460) translate(41.05499999999999 51.9)"/><use xlink:href="#n" transform="matrix(1,0,0,1,560,460) translate(35.62999999999999 73.5)"/><path d="M920 320c0 33.14-35.82 60-80 60s-80-26.86-80-60 35.82-60 80-60 80 26.86 80 60z" stroke="#5e5e5e" fill="#fff"/><use xlink:href="#m" transform="matrix(1,0,0,1,760,260) translate(41.05499999999999 51.9)"/><use xlink:href="#o" transform="matrix(1,0,0,1,760,260) translate(41.07999999999999 73.5)"/><path d="M720 320c0 33.14-35.82 60-80 60s-80-26.86-80-60 35.82-60 80-60 80 26.86 80 60z" stroke="#5e5e5e" fill="#fff"/><use xlink:href="#m" transform="matrix(1,0,0,1,560,260) translate(41.05499999999999 51.9)"/><use xlink:href="#p" transform="matrix(1,0,0,1,560,260) translate(40.60499999999999 73.5)"/><path d="M1260 880c0 33.14-35.82 60-80 60s-80-26.86-80-60 35.82-60 80-60 80 26.86 80 60z" stroke="#5e5e5e" fill="#fff"/><use xlink:href="#q" transform="matrix(1,0,0,1,1100,820) translate(14.604999999999999 63.15)"/><use xlink:href="#r" transform="matrix(1,0,0,1,1100,820) translate(97.50500000000001 63.15)"/><path d="M1460 1000c0 33.14-35.82 60-80 60s-80-26.86-80-60 35.82-60 80-60 80 26.86 80 60z" stroke="#5e5e5e" fill="#fff"/><use xlink:href="#s" transform="matrix(1,0,0,1,1300,940) translate(17.279999999999994 63.15)"/><use xlink:href="#t" transform="matrix(1,0,0,1,1300,940) translate(93.78 63.15)"/><path d="M1260 1081c0 33.12-35.82 60-80 60s-80-26.88-80-60c0-33.15 35.82-60 80-60s80 26.85 80 60z" stroke="#5e5e5e" fill="#fff"/><use xlink:href="#u" transform="matrix(1,0,0,1,1100,1020.9868386309192) translate(30.57999999999999 63.15)"/><use xlink:href="#r" transform="matrix(1,0,0,1,1100,1020.9868386309192) translate(81.53 63.15)"/><path d="M1380 939v-4.42m0-4.4v-8.85m0-4.4v-8.85m0-4.4v-8.85m0-4.4V886l-.82-3.03-2.15-2.15-3.03-.82h-5.4m-5.4 0h-10.78m-5.4 0h-10.8m-5.38 0h-10.8m-5.4 0h-10.78m-5.4 0h-10.8m-5.38 0h-5.4" stroke="#5e5e5e" fill="none"/><path d="M1380.5 939.52l-.5-.02h-.5v-.5h1z" stroke="#5e5e5e" stroke-width=".05" fill="#5e5e5e"/><path d="M1262.12 880l14.26-4.64v9.28z" stroke="#5e5e5e" fill="#5e5e5e"/><path d="M1180 1020v-5.27m0-5.26v-10.52m0-5.26v-10.52m0-5.26V967.4m0-5.26v-5.26" stroke="#5e5e5e" fill="none"/><path d="M1180.5 1020.5h-1v-.53h1z" stroke="#5e5e5e" stroke-width=".05" fill="#5e5e5e"/><path d="M1180 942.12l4.64 14.26h-9.28z" stroke="#5e5e5e" fill="#5e5e5e"/><path d="M840 381v4.93m0 4.92v9.85m0 4.93v9.85m0 4.93v9.86m0 4.93v9.84m0 4.92v9.85m0 4.94v9.85m0 4.92v9.85m0 4.93v9.85m0 4.92V514l-.82 3.03-2.15 2.15-3.03.82h-5.4m-5.4 0h-10.78m-5.4 0h-10.8m-5.38 0h-10.8m-5.4 0h-10.78m-5.4 0h-10.8m-5.38 0h-5.4" stroke="#5e5e5e" fill="none"/><path d="M840 380.5h.5v.5h-1v-.52z" stroke="#5e5e5e" stroke-width=".05" fill="#5e5e5e"/><path d="M722.12 520l14.26-4.64v9.28z" stroke="#5e5e5e" fill="#5e5e5e"/><path d="M640 381v5.18m0 5.17v10.36m0 5.18v10.35m0 5.18v10.36m0 5.18v5.18" stroke="#5e5e5e" fill="none"/><path d="M640 380.5h.5v.5h-1v-.52z" stroke="#5e5e5e" stroke-width=".05" fill="#5e5e5e"/><path d="M640 457.88l-4.64-14.26h9.28z" stroke="#5e5e5e" fill="#5e5e5e"/><path d="M1136.37 627.67l-.08-.2-.2-.08h-4.96m-4.95 0h-9.9m-4.96 0h-9.9m-4.95 0h-9.9m-4.96 0h-9.9m-4.95 0h-9.9m-4.96 0h-9.9m-4.95 0h-9.92m-4.95 0h-9.9m-4.95 0h-9.9m-4.95 0h-9.9m-4.95 0h-9.9m-4.95 0h-9.9m-4.95 0h-9.9m-4.95 0h-9.9m-4.96 0h-9.9m-4.95 0h-9.9m-4.95 0h-9.9m-4.95 0h-9.9m-4.95 0h-9.9m-4.95 0h-9.9m-4.95 0h-9.9m-4.95 0h-9.9m-4.96 0h-9.9m-4.95 0h-9.9m-4.94 0h-9.9m-4.95 0H745m-4.94 0h-9.9m-4.95 0h-9.9m-4.94 0h-9.9m-4.96 0h-9.9m-4.95 0h-9.9m-4.95 0h-9.9m-4.95 0H646l-3.03-.83-2.15-2.15-.82-3.03v-4.1m0-4.08v-8.17m0-4.08v-4.1" stroke="#5e5e5e" fill="none"/><path d="M1136.87 627.9v.02l-1 .5v-.76h1z" stroke="#5e5e5e" stroke-width=".05" fill="#5e5e5e"/><path d="M640 582.12l4.64 14.26h-9.28z" stroke="#5e5e5e" fill="#5e5e5e"/><path d="M720 860c0 33.14-35.82 60-80 60s-80-26.86-80-60 35.82-60 80-60 80 26.86 80 60z" stroke="#5e5e5e" fill="#fff"/><use xlink:href="#m" transform="matrix(1,0,0,1,560,800) translate(41.05499999999999 51.9)"/><use xlink:href="#v" transform="matrix(1,0,0,1,560,800) translate(29.529999999999994 73.5)"/><path d="M900 1020c0 33.14-35.82 60-80 60s-80-26.86-80-60 35.82-60 80-60 80 26.86 80 60z" stroke="#5e5e5e" fill="#fff"/><use xlink:href="#w" transform="matrix(1,0,0,1,740,960) translate(55.055 51.9)"/><use xlink:href="#v" transform="matrix(1,0,0,1,740,960) translate(29.529999999999994 73.5)"/><path d="M720 1080.22c0 33.13-35.82 60-80 60s-80-26.87-80-60c0-33.14 35.82-60 80-60s80 26.86 80 60z" stroke="#5e5e5e" fill="#fff"/><use xlink:href="#x" transform="matrix(1,0,0,1,560,1020.2152421018632) translate(45.05499999999999 51.9)"/><use xlink:href="#v" transform="matrix(1,0,0,1,560,1020.2152421018632) translate(29.529999999999994 73.5)"/><path d="M1128.86 726.22l-.06.15-.15.06h-5.03m-5.02 0h-10.06m-5.03 0h-10.04m-5.03 0h-10.06m-5.02 0h-10.06m-5.04 0h-10.05m-5.02 0h-10.05m-5.03 0h-10.06m-5.02 0h-10.06m-5.03 0h-10.05m-5.03 0H972.8m-5.03 0H957.7m-5.02 0h-10.05m-5.03 0h-10.05m-5.03 0h-10.06m-5.02 0h-10.06m-5.03 0H882.3m-5.03 0H867.2m-5 0h-10.07m-5.03 0h-10.05m-5.03 0h-10.05m-5.03 0h-10.06m-5.02 0H791.8m-5.03 0h-10.05m-5.03 0h-10.06m-5.03 0h-10.05m-5.03 0h-10.05m-5.03 0H716.4m-5.04 0H701.3m-5.02 0h-10.06m-5.03 0h-10.06m-5.03 0h-10.04m-5.03 0H646l-3.03.82-2.15 2.15-.82 3.03v5.63m0 5.63v11.26m0 5.63v11.25m0 5.63v5.64" stroke="#5e5e5e" fill="none"/><path d="M1129.36 726v.23h-1v-.8z" stroke="#5e5e5e" stroke-width=".05" fill="#5e5e5e"/><path d="M640 797.88l-4.64-14.26h9.28z" stroke="#5e5e5e" fill="#5e5e5e"/><path d="M820 959v-5.17m0-5.16v-10.34m0-5.16v-10.34m0-5.16v-10.34m0-5.16v-10.34m0-5.16v-10.34m0-5.16V866l-.82-3.03-2.15-2.15L814 860h-5.14m-5.14 0h-10.28m-5.15 0H778m-5.13 0H762.6m-5.15 0h-10.28m-5.15 0h-5.14" stroke="#5e5e5e" fill="none"/><path d="M820.5 959.52l-.5-.02h-.5v-.5h1z" stroke="#5e5e5e" stroke-width=".05" fill="#5e5e5e"/><path d="M722.12 860l14.26-4.64v9.28z" stroke="#5e5e5e" fill="#5e5e5e"/><path d="M640 1019.22v-5.5m0-5.48v-10.98m0-5.5V980.8m0-5.5v-10.97m0-5.5v-10.97m0-5.5v-5.48" stroke="#5e5e5e" fill="none"/><path d="M640.5 1019.73h-1v-.53h1z" stroke="#5e5e5e" stroke-width=".05" fill="#5e5e5e"/><path d="M640 922.12l4.64 14.26h-9.28z" stroke="#5e5e5e" fill="#5e5e5e"/><path d="M850 720h240v60H850z" fill="none"/><use xlink:href="#b" transform="matrix(1,0,0,1,850,720) translate(38.02469135802468 34.44444444444444)"/><path d="M840 577.8h240v60H840z" fill="none"/><use xlink:href="#b" transform="matrix(1,0,0,1,840,577.8110806362984) translate(38.02469135802468 34.44444444444444)"/><path d="M1180 602.13v-5.05m0-5.04v-10.1m0-5.05v-10.1m0-5.05v-10.1m0-5.04v-10.08m0-5.05v-10.1m0-5.04v-10.1m0-5.04v-10.1m0-5.05V481" stroke="#5e5e5e" fill="none"/><path d="M1180 616.9l-4.64-14.27h9.28z" stroke="#5e5e5e" fill="#5e5e5e"/><path d="M1180 480.5h.5v.5h-1v-.52z" stroke="#5e5e5e" stroke-width=".05" fill="#5e5e5e"/><path d="M440 380h240v60H440z" fill="none"/><use xlink:href="#g" transform="matrix(1,0,0,1,440,380) translate(41.69753086419753 34.44444444444444)"/><path d="M800 380h240v60H800z" fill="none"/><use xlink:href="#g" transform="matrix(1,0,0,1,800,380) translate(41.69753086419753 34.44444444444444)"/><path d="M440 940.1h240v60H440z" fill="none"/><use xlink:href="#g" transform="matrix(1,0,0,1,440,940.1076210509316) translate(41.69753086419753 34.44444444444444)"/><path d="M780 880h240v60H780z" fill="none"/><g><use xlink:href="#g" transform="matrix(1,0,0,1,780,880) translate(41.69753086419753 34.44444444444444)"/></g><path d="M1340 880h240v60h-240z" fill="none"/><g><use xlink:href="#g" transform="matrix(1,0,0,1,1340,880) translate(41.69753086419753 34.44444444444444)"/></g><path d="M980 961h240v60H980z" fill="none"/><g><use xlink:href="#g" transform="matrix(1,0,0,1,980,960.9868386309192) translate(41.69753086419753 34.44444444444444)"/></g><path d="M1180 740v5.27m0 5.26v10.52m0 5.26v10.52m0 5.26v10.52m0 5.26v5.26" stroke="#5e5e5e" fill="none"/><path d="M1180 739.5h.5v.53h-1v-.53z" stroke="#5e5e5e" stroke-width=".05" fill="#5e5e5e"/><path d="M1180 817.88l-4.64-14.26h9.28z" stroke="#5e5e5e" fill="#5e5e5e"/><path d="M359 678.83h-39.48-.02c0-.02 0-.03.02-.03h779.5" stroke="#5e5e5e" fill="none"/><path d="M359.5 679.33h-.5v-1h.5zM1099.5 679v.3h-.5v-1h.52z" stroke="#5e5e5e" stroke-width=".05" fill="#5e5e5e"/><defs><path fill="#333" d="M205 0l-28-72H64L36 0H1l101-248h38L239 0h-34zm-38-99l-47-123c-12 45-31 82-46 123h93" id="y"/><path fill="#333" d="M30-248c87 1 191-15 191 75 0 78-77 80-158 76V0H30v-248zm33 125c57 0 124 11 124-50 0-59-68-47-124-48v98" id="z"/><path fill="#333" d="M30 0v-248h33v221h125V0H30" id="A"/><path fill="#333" d="M33 0v-248h34V0H33" id="B"/><path fill="#333" d="M212-179c-10-28-35-45-73-45-59 0-87 40-87 99 0 60 29 101 89 101 43 0 62-24 78-52l27 14C228-24 195 4 139 4 59 4 22-46 18-125c-6-104 99-153 187-111 19 9 31 26 39 46" id="C"/><path fill="#333" d="M127-220V0H93v-220H8v-28h204v28h-85" id="D"/><path fill="#333" d="M140-251c81 0 123 46 123 126C263-46 219 4 140 4 59 4 17-45 17-125s42-126 123-126zm0 227c63 0 89-41 89-101s-29-99-89-99c-61 0-89 39-89 99S79-25 140-24" id="E"/><path fill="#333" d="M190 0L58-211 59 0H30v-248h39L202-35l-2-213h31V0h-41" id="F"/><g id="a"><use transform="matrix(0.06172839506172839,0,0,0.06172839506172839,0,0)" xlink:href="#y"/><use transform="matrix(0.06172839506172839,0,0,0.06172839506172839,14.814814814814813,0)" xlink:href="#z"/><use transform="matrix(0.06172839506172839,0,0,0.06172839506172839,29.629629629629626,0)" xlink:href="#z"/><use transform="matrix(0.06172839506172839,0,0,0.06172839506172839,44.44444444444444,0)" xlink:href="#A"/><use transform="matrix(0.06172839506172839,0,0,0.06172839506172839,56.79012345679012,0)" xlink:href="#B"/><use transform="matrix(0.06172839506172839,0,0,0.06172839506172839,62.96296296296296,0)" xlink:href="#C"/><use transform="matrix(0.06172839506172839,0,0,0.06172839506172839,78.95061728395062,0)" xlink:href="#y"/><use transform="matrix(0.06172839506172839,0,0,0.06172839506172839,92.09876543209876,0)" xlink:href="#D"/><use transform="matrix(0.06172839506172839,0,0,0.06172839506172839,105.61728395061728,0)" xlink:href="#B"/><use transform="matrix(0.06172839506172839,0,0,0.06172839506172839,111.79012345679011,0)" xlink:href="#E"/><use transform="matrix(0.06172839506172839,0,0,0.06172839506172839,129.07407407407408,0)" xlink:href="#F"/></g><path fill="#333" d="M18-100v-36l175-74v27L42-118l151 64v27" id="G"/><path fill="#333" d="M232-93c-1 65-40 97-104 97C67 4 28-28 28-90v-158h33c8 89-33 224 67 224 102 0 64-133 71-224h33v155" id="H"/><path fill="#333" d="M30-248c118-7 216 8 213 122C240-48 200 0 122 0H30v-248zM63-27c89 8 146-16 146-99s-60-101-146-95v194" id="I"/><path fill="#333" d="M30 0v-248h187v28H63v79h144v27H63v87h162V0H30" id="J"/><path fill="#333" d="M185-189c-5-48-123-54-124 2 14 75 158 14 163 119 3 78-121 87-175 55-17-10-28-26-33-46l33-7c5 56 141 63 141-1 0-78-155-14-162-118-5-82 145-84 179-34 5 7 8 16 11 25" id="K"/><path fill="#333" d="M18-27v-27l151-64-151-65v-27l175 74v36" id="L"/><g id="b"><use transform="matrix(0.06172839506172839,0,0,0.06172839506172839,0,0)" xlink:href="#G"/><use transform="matrix(0.06172839506172839,0,0,0.06172839506172839,12.962962962962962,0)" xlink:href="#G"/><use transform="matrix(0.06172839506172839,0,0,0.06172839506172839,25.925925925925924,0)" xlink:href="#B"/><use transform="matrix(0.06172839506172839,0,0,0.06172839506172839,32.098765432098766,0)" xlink:href="#F"/><use transform="matrix(0.06172839506172839,0,0,0.06172839506172839,48.08641975308642,0)" xlink:href="#C"/><use transform="matrix(0.06172839506172839,0,0,0.06172839506172839,64.07407407407408,0)" xlink:href="#A"/><use transform="matrix(0.06172839506172839,0,0,0.06172839506172839,76.41975308641976,0)" xlink:href="#H"/><use transform="matrix(0.06172839506172839,0,0,0.06172839506172839,92.40740740740742,0)" xlink:href="#I"/><use transform="matrix(0.06172839506172839,0,0,0.06172839506172839,108.39506172839508,0)" xlink:href="#J"/><use transform="matrix(0.06172839506172839,0,0,0.06172839506172839,123.20987654320989,0)" xlink:href="#K"/><use transform="matrix(0.06172839506172839,0,0,0.06172839506172839,138.0246913580247,0)" xlink:href="#L"/><use transform="matrix(0.06172839506172839,0,0,0.06172839506172839,150.98765432098767,0)" xlink:href="#L"/></g><path fill="#5e5e5e" d="M220-157c-53 9-28 100-34 157h-49v-107c1-27-5-49-29-50C55-147 81-57 75 0H25l-1-190h47c2 12-1 28 3 38 10-53 101-56 108 0 13-22 24-43 59-42 82 1 51 116 57 194h-49v-107c-1-25-5-48-29-50" id="M"/><path fill="#5e5e5e" d="M123 10C108 53 80 86 19 72V37c35 8 53-11 59-39L3-190h52l48 148c12-52 28-100 44-148h51" id="N"/><path fill="#5e5e5e" d="M67-125c0 53 21 87 73 88 37 1 54-22 65-47l45 17C233-25 199 4 140 4 58 4 20-42 15-125 8-235 124-281 211-232c18 10 29 29 36 50l-46 12c-8-25-30-41-62-41-52 0-71 34-72 86" id="O"/><path fill="#5e5e5e" d="M25-224v-37h50v37H25zM25 0v-190h50V0H25" id="P"/><path fill="#5e5e5e" d="M135-150c-39-12-60 13-60 57V0H25l-1-190h47c2 13-1 29 3 40 6-28 27-53 61-41v41" id="Q"/><path fill="#5e5e5e" d="M190-63c-7 42-38 67-86 67-59 0-84-38-90-98-12-110 154-137 174-36l-49 2c-2-19-15-32-35-32-30 0-35 28-38 64-6 74 65 87 74 30" id="R"/><path fill="#5e5e5e" d="M25 0v-261h50V0H25" id="S"/><path fill="#5e5e5e" d="M185-48c-13 30-37 53-82 52C43 2 14-33 14-96s30-98 90-98c62 0 83 45 84 108H66c0 31 8 55 39 56 18 0 30-7 34-22zm-45-69c5-46-57-63-70-21-2 6-4 13-4 21h74" id="T"/><g id="c"><use transform="matrix(0.06790123456790123,0,0,0.06790123456790123,0,0)" xlink:href="#M"/><use transform="matrix(0.06790123456790123,0,0,0.06790123456790123,21.728395061728392,0)" xlink:href="#N"/><use transform="matrix(0.06790123456790123,0,0,0.06790123456790123,35.30864197530864,0)" xlink:href="#O"/><use transform="matrix(0.06790123456790123,0,0,0.06790123456790123,52.895061728395056,0)" xlink:href="#P"/><use transform="matrix(0.06790123456790123,0,0,0.06790123456790123,59.685185185185176,0)" xlink:href="#Q"/><use transform="matrix(0.06790123456790123,0,0,0.06790123456790123,69.19135802469135,0)" xlink:href="#R"/><use transform="matrix(0.06790123456790123,0,0,0.06790123456790123,82.7716049382716,0)" xlink:href="#S"/><use transform="matrix(0.06790123456790123,0,0,0.06790123456790123,89.56172839506172,0)" xlink:href="#T"/><path fill="#5e5e5e" d="M-1.22 1.3h112.38V3.9H-1.22z"/></g><path fill="#5e5e5e" d="M238-95c0 69-44 99-111 99C63 4 22-25 22-93v-155h51v151c-1 38 19 59 55 60 90 1 49-130 58-211h52v153" id="U"/><path fill="#5e5e5e" d="M137-138c1-29-70-34-71-4 15 46 118 7 119 86 1 83-164 76-172 9l43-7c4 19 20 25 44 25 33 8 57-30 24-41C81-84 22-81 20-136c-2-80 154-74 161-7" id="V"/><g id="d"><use transform="matrix(0.06790123456790123,0,0,0.06790123456790123,0,0)" xlink:href="#U"/><use transform="matrix(0.06790123456790123,0,0,0.06790123456790123,17.586419753086417,0)" xlink:href="#V"/><use transform="matrix(0.06790123456790123,0,0,0.06790123456790123,31.166666666666664,0)" xlink:href="#T"/><path fill="#5e5e5e" d="M-1.22 1.3h53.98V3.9H-1.22z"/></g><path fill="#5e5e5e" d="M133-34C117-15 103 5 69 4 32 3 11-16 11-54c-1-60 55-63 116-61 1-26-3-47-28-47-18 1-26 9-28 27l-52-2c7-38 36-58 82-57s74 22 75 68l1 82c-1 14 12 18 25 15v27c-30 8-71 5-69-32zm-48 3c29 0 43-24 42-57-32 0-66-3-65 30 0 17 8 27 23 27" id="W"/><g id="e"><use transform="matrix(0.06790123456790123,0,0,0.06790123456790123,0,0)" xlink:href="#O"/><use transform="matrix(0.06790123456790123,0,0,0.06790123456790123,17.586419753086417,0)" xlink:href="#W"/><use transform="matrix(0.06790123456790123,0,0,0.06790123456790123,31.166666666666664,0)" xlink:href="#V"/><use transform="matrix(0.06790123456790123,0,0,0.06790123456790123,44.74691358024691,0)" xlink:href="#T"/><path fill="#5e5e5e" d="M-1.22 1.3h67.56V3.9H-1.22z"/></g><path fill="#5e5e5e" d="M24-248c120-7 223 5 221 122C244-46 201 0 124 0H24v-248zM76-40c74 7 117-18 117-86 0-67-45-88-117-82v168" id="X"/><path fill="#5e5e5e" d="M195-6C206 82 75 100 31 46c-4-6-6-13-8-21l49-6c3 16 16 24 34 25 40 0 42-37 40-79-11 22-30 35-61 35-53 0-70-43-70-97 0-56 18-96 73-97 30 0 46 14 59 34l2-30h47zm-90-29c32 0 41-27 41-63 0-35-9-62-40-62-32 0-39 29-40 63 0 36 9 62 39 62" id="Y"/><g id="f"><use transform="matrix(0.06790123456790123,0,0,0.06790123456790123,0,0)" xlink:href="#X"/><use transform="matrix(0.06790123456790123,0,0,0.06790123456790123,17.586419753086417,0)" xlink:href="#P"/><use transform="matrix(0.06790123456790123,0,0,0.06790123456790123,24.37654320987654,0)" xlink:href="#W"/><use transform="matrix(0.06790123456790123,0,0,0.06790123456790123,37.95679012345679,0)" xlink:href="#Y"/><use transform="matrix(0.06790123456790123,0,0,0.06790123456790123,52.82716049382715,0)" xlink:href="#Q"/><use transform="matrix(0.06790123456790123,0,0,0.06790123456790123,62.33333333333332,0)" xlink:href="#W"/><use transform="matrix(0.06790123456790123,0,0,0.06790123456790123,75.91358024691358,0)" xlink:href="#M"/><path fill="#5e5e5e" d="M-1.22 1.3h100.1V3.9H-1.23z"/></g><path fill="#333" d="M195 0l-74-108L45 0H8l94-129-87-119h37l69 98 67-98h37l-84 118L233 0h-38" id="Z"/><g id="g"><use transform="matrix(0.06172839506172839,0,0,0.06172839506172839,0,0)" xlink:href="#G"/><use transform="matrix(0.06172839506172839,0,0,0.06172839506172839,12.962962962962962,0)" xlink:href="#G"/><use transform="matrix(0.06172839506172839,0,0,0.06172839506172839,25.925925925925924,0)" xlink:href="#J"/><use transform="matrix(0.06172839506172839,0,0,0.06172839506172839,40.74074074074073,0)" xlink:href="#Z"/><use transform="matrix(0.06172839506172839,0,0,0.06172839506172839,55.55555555555554,0)" xlink:href="#D"/><use transform="matrix(0.06172839506172839,0,0,0.06172839506172839,69.07407407407406,0)" xlink:href="#J"/><use transform="matrix(0.06172839506172839,0,0,0.06172839506172839,83.88888888888887,0)" xlink:href="#F"/><use transform="matrix(0.06172839506172839,0,0,0.06172839506172839,99.87654320987653,0)" xlink:href="#I"/><use transform="matrix(0.06172839506172839,0,0,0.06172839506172839,115.86419753086419,0)" xlink:href="#K"/><use transform="matrix(0.06172839506172839,0,0,0.06172839506172839,130.679012345679,0)" xlink:href="#L"/><use transform="matrix(0.06172839506172839,0,0,0.06172839506172839,143.64197530864197,0)" xlink:href="#L"/></g><path fill="#333" d="M238-95c0 69-44 99-111 99C63 4 22-25 22-93v-155h51v151c-1 38 19 59 55 60 90 1 49-130 58-211h52v153" id="aa"/><path fill="#333" d="M169-182c-1-43-94-46-97-3 18 66 151 10 154 114 3 95-165 93-204 36-6-8-10-19-12-30l50-8c3 46 112 56 116 5-17-69-150-10-154-114-4-87 153-88 188-35 5 8 8 18 10 28" id="ab"/><path fill="#333" d="M24 0v-248h195v40H76v63h132v40H76v65h150V0H24" id="ac"/><path fill="#333" d="M240-174c0 40-23 61-54 70L253 0h-59l-57-94H76V0H24v-248c93 4 217-23 216 74zM76-134c48-2 112 12 112-38 0-48-66-32-112-35v73" id="ad"/><g id="h"><use transform="matrix(0.06172839506172839,0,0,0.06172839506172839,0,0)" xlink:href="#aa"/><use transform="matrix(0.06172839506172839,0,0,0.06172839506172839,15.987654320987653,0)" xlink:href="#ab"/><use transform="matrix(0.06172839506172839,0,0,0.06172839506172839,30.80246913580247,0)" xlink:href="#ac"/><use transform="matrix(0.06172839506172839,0,0,0.06172839506172839,45.61728395061728,0)" xlink:href="#ad"/></g><path fill="#333" d="M233-177c-1 41-23 64-60 70L243 0h-38l-65-103H63V0H30v-248c88 3 205-21 203 71zM63-129c60-2 137 13 137-47 0-61-80-42-137-45v92" id="ae"/><path fill="#333" d="M137 0h-34L2-248h35l83 218 83-218h36" id="af"/><g id="i"><use transform="matrix(0.06172839506172839,0,0,0.06172839506172839,0,0)" xlink:href="#K"/><use transform="matrix(0.06172839506172839,0,0,0.06172839506172839,14.814814814814813,0)" xlink:href="#J"/><use transform="matrix(0.06172839506172839,0,0,0.06172839506172839,29.629629629629626,0)" xlink:href="#ae"/><use transform="matrix(0.06172839506172839,0,0,0.06172839506172839,45.18518518518518,0)" xlink:href="#af"/><use transform="matrix(0.06172839506172839,0,0,0.06172839506172839,60,0)" xlink:href="#J"/><use transform="matrix(0.06172839506172839,0,0,0.06172839506172839,74.81481481481481,0)" xlink:href="#ae"/></g><path d="M30 0v-248h33v221h125V0H30" id="ag"/><path d="M140-251c81 0 123 46 123 126C263-46 219 4 140 4 59 4 17-45 17-125s42-126 123-126zm0 227c63 0 89-41 89-101s-29-99-89-99c-61 0-89 39-89 99S79-25 140-24" id="ah"/><path d="M143 4C61 4 22-44 18-125c-5-107 100-154 193-111 17 8 29 25 37 43l-32 9c-13-25-37-40-76-40-61 0-88 39-88 99 0 61 29 100 91 101 35 0 62-11 79-27v-45h-74v-28h105v86C228-13 192 4 143 4" id="ai"/><path d="M33 0v-248h34V0H33" id="aj"/><path d="M190 0L58-211 59 0H30v-248h39L202-35l-2-213h31V0h-41" id="ak"/><g id="j"><use transform="matrix(0.05,0,0,0.05,0,0)" xlink:href="#ag"/><use transform="matrix(0.05,0,0,0.05,10,0)" xlink:href="#ah"/><use transform="matrix(0.05,0,0,0.05,24,0)" xlink:href="#ai"/><use transform="matrix(0.05,0,0,0.05,38,0)" xlink:href="#aj"/><use transform="matrix(0.05,0,0,0.05,43,0)" xlink:href="#ak"/></g><path d="M63-220v92h138v28H63V0H30v-248h175v28H63" id="al"/><path d="M205 0l-28-72H64L36 0H1l101-248h38L239 0h-34zm-38-99l-47-123c-12 45-31 82-46 123h93" id="am"/><path d="M30 0v-248h187v28H63v79h144v27H63v87h162V0H30" id="an"/><path d="M30-248c118-7 216 8 213 122C240-48 200 0 122 0H30v-248zM63-27c89 8 146-16 146-99s-60-101-146-95v194" id="ao"/><g id="k"><use transform="matrix(0.05,0,0,0.05,0,0)" xlink:href="#al"/><use transform="matrix(0.05,0,0,0.05,9.950000000000001,0)" xlink:href="#am"/><use transform="matrix(0.05,0,0,0.05,21.950000000000003,0)" xlink:href="#aj"/><use transform="matrix(0.05,0,0,0.05,26.950000000000003,0)" xlink:href="#ag"/><use transform="matrix(0.05,0,0,0.05,36.95,0)" xlink:href="#an"/><use transform="matrix(0.05,0,0,0.05,48.95,0)" xlink:href="#ao"/></g><path d="M212-179c-10-28-35-45-73-45-59 0-87 40-87 99 0 60 29 101 89 101 43 0 62-24 78-52l27 14C228-24 195 4 139 4 59 4 22-46 18-125c-6-104 99-153 187-111 19 9 31 26 39 46" id="ap"/><path d="M233-177c-1 41-23 64-60 70L243 0h-38l-65-103H63V0H30v-248c88 3 205-21 203 71zM63-129c60-2 137 13 137-47 0-61-80-42-137-45v92" id="aq"/><path d="M127-220V0H93v-220H8v-28h204v28h-85" id="ar"/><path d="M185-189c-5-48-123-54-124 2 14 75 158 14 163 119 3 78-121 87-175 55-17-10-28-26-33-46l33-7c5 56 141 63 141-1 0-78-155-14-162-118-5-82 145-84 179-34 5 7 8 16 11 25" id="as"/><g id="l"><use transform="matrix(0.05,0,0,0.05,0,0)" xlink:href="#ap"/><use transform="matrix(0.05,0,0,0.05,12.950000000000001,0)" xlink:href="#aq"/><use transform="matrix(0.05,0,0,0.05,25.900000000000002,0)" xlink:href="#an"/><use transform="matrix(0.05,0,0,0.05,37.900000000000006,0)" xlink:href="#ao"/><use transform="matrix(0.05,0,0,0.05,50.85000000000001,0)" xlink:href="#an"/><use transform="matrix(0.05,0,0,0.05,62.85,0)" xlink:href="#ak"/><use transform="matrix(0.05,0,0,0.05,75.80000000000001,0)" xlink:href="#ar"/><use transform="matrix(0.05,0,0,0.05,86.75000000000001,0)" xlink:href="#aj"/><use transform="matrix(0.05,0,0,0.05,91.75000000000001,0)" xlink:href="#am"/><use transform="matrix(0.05,0,0,0.05,103.75,0)" xlink:href="#ag"/><use transform="matrix(0.05,0,0,0.05,113.75,0)" xlink:href="#as"/></g><path d="M240 0l2-218c-23 76-54 145-80 218h-23L58-218 59 0H30v-248h44l77 211c21-75 51-140 76-211h43V0h-30" id="at"/><g id="m"><use transform="matrix(0.05,0,0,0.05,0,0)" xlink:href="#at"/><use transform="matrix(0.05,0,0,0.05,14.950000000000001,0)" xlink:href="#am"/><use transform="matrix(0.05,0,0,0.05,26.950000000000003,0)" xlink:href="#ak"/><use transform="matrix(0.05,0,0,0.05,39.900000000000006,0)" xlink:href="#am"/><use transform="matrix(0.05,0,0,0.05,51.900000000000006,0)" xlink:href="#ai"/><use transform="matrix(0.05,0,0,0.05,65.9,0)" xlink:href="#an"/></g><path d="M232-93c-1 65-40 97-104 97C67 4 28-28 28-90v-158h33c8 89-33 224 67 224 102 0 64-133 71-224h33v155" id="au"/><g id="n"><use transform="matrix(0.05,0,0,0.05,0,0)" xlink:href="#am"/><use transform="matrix(0.05,0,0,0.05,12,0)" xlink:href="#ap"/><use transform="matrix(0.05,0,0,0.05,24.950000000000003,0)" xlink:href="#ap"/><use transform="matrix(0.05,0,0,0.05,37.900000000000006,0)" xlink:href="#ah"/><use transform="matrix(0.05,0,0,0.05,51.900000000000006,0)" xlink:href="#au"/><use transform="matrix(0.05,0,0,0.05,64.85000000000001,0)" xlink:href="#ak"/><use transform="matrix(0.05,0,0,0.05,77.80000000000001,0)" xlink:href="#ar"/></g><g id="o"><use transform="matrix(0.05,0,0,0.05,0,0)" xlink:href="#ap"/><use transform="matrix(0.05,0,0,0.05,12.950000000000001,0)" xlink:href="#aj"/><use transform="matrix(0.05,0,0,0.05,17.950000000000003,0)" xlink:href="#aq"/><use transform="matrix(0.05,0,0,0.05,30.900000000000006,0)" xlink:href="#ap"/><use transform="matrix(0.05,0,0,0.05,43.85000000000001,0)" xlink:href="#ag"/><use transform="matrix(0.05,0,0,0.05,53.85,0)" xlink:href="#an"/><use transform="matrix(0.05,0,0,0.05,65.85000000000001,0)" xlink:href="#as"/></g><g id="p"><use transform="matrix(0.05,0,0,0.05,0,0)" xlink:href="#al"/><use transform="matrix(0.05,0,0,0.05,10.950000000000001,0)" xlink:href="#aq"/><use transform="matrix(0.05,0,0,0.05,23.900000000000002,0)" xlink:href="#aj"/><use transform="matrix(0.05,0,0,0.05,28.900000000000002,0)" xlink:href="#an"/><use transform="matrix(0.05,0,0,0.05,40.900000000000006,0)" xlink:href="#ak"/><use transform="matrix(0.05,0,0,0.05,53.85,0)" xlink:href="#ao"/><use transform="matrix(0.05,0,0,0.05,66.80000000000001,0)" xlink:href="#as"/></g><g id="q"><use transform="matrix(0.05,0,0,0.05,0,0)" xlink:href="#at"/><use transform="matrix(0.05,0,0,0.05,14.950000000000001,0)" xlink:href="#am"/><use transform="matrix(0.05,0,0,0.05,26.950000000000003,0)" xlink:href="#ak"/><use transform="matrix(0.05,0,0,0.05,39.900000000000006,0)" xlink:href="#am"/><use transform="matrix(0.05,0,0,0.05,51.900000000000006,0)" xlink:href="#ai"/><use transform="matrix(0.05,0,0,0.05,65.9,0)" xlink:href="#an"/></g><g id="r"><use transform="matrix(0.05,0,0,0.05,0,0)" xlink:href="#al"/><use transform="matrix(0.05,0,0,0.05,10.950000000000001,0)" xlink:href="#an"/><use transform="matrix(0.05,0,0,0.05,22.950000000000003,0)" xlink:href="#an"/><use transform="matrix(0.05,0,0,0.05,34.95,0)" xlink:href="#ao"/></g><g id="s"><use transform="matrix(0.05,0,0,0.05,0,0)" xlink:href="#ap"/><use transform="matrix(0.05,0,0,0.05,12.950000000000001,0)" xlink:href="#aq"/><use transform="matrix(0.05,0,0,0.05,25.900000000000002,0)" xlink:href="#an"/><use transform="matrix(0.05,0,0,0.05,37.900000000000006,0)" xlink:href="#am"/><use transform="matrix(0.05,0,0,0.05,48.550000000000004,0)" xlink:href="#ar"/><use transform="matrix(0.05,0,0,0.05,59.5,0)" xlink:href="#an"/></g><path d="M30-248c87 1 191-15 191 75 0 78-77 80-158 76V0H30v-248zm33 125c57 0 124 11 124-50 0-59-68-47-124-48v98" id="av"/><g id="t"><use transform="matrix(0.05,0,0,0.05,0,0)" xlink:href="#av"/><use transform="matrix(0.05,0,0,0.05,12,0)" xlink:href="#ah"/><use transform="matrix(0.05,0,0,0.05,26,0)" xlink:href="#as"/><use transform="matrix(0.05,0,0,0.05,38,0)" xlink:href="#ar"/></g><path d="M137 0h-34L2-248h35l83 218 83-218h36" id="aw"/><path d="M266 0h-40l-56-210L115 0H75L2-248h35L96-30l15-64 43-154h32l59 218 59-218h35" id="ax"/><g id="u"><use transform="matrix(0.05,0,0,0.05,0,0)" xlink:href="#aw"/><use transform="matrix(0.05,0,0,0.05,12,0)" xlink:href="#aj"/><use transform="matrix(0.05,0,0,0.05,17,0)" xlink:href="#an"/><use transform="matrix(0.05,0,0,0.05,29,0)" xlink:href="#ax"/></g><g id="v"><use transform="matrix(0.05,0,0,0.05,0,0)" xlink:href="#at"/><use transform="matrix(0.05,0,0,0.05,14.950000000000001,0)" xlink:href="#an"/><use transform="matrix(0.05,0,0,0.05,26.950000000000003,0)" xlink:href="#as"/><use transform="matrix(0.05,0,0,0.05,38.95,0)" xlink:href="#as"/><use transform="matrix(0.05,0,0,0.05,50.95,0)" xlink:href="#am"/><use transform="matrix(0.05,0,0,0.05,62.95,0)" xlink:href="#ai"/><use transform="matrix(0.05,0,0,0.05,76.95,0)" xlink:href="#an"/><use transform="matrix(0.05,0,0,0.05,88.95,0)" xlink:href="#as"/></g><g id="w"><use transform="matrix(0.05,0,0,0.05,0,0)" xlink:href="#as"/><use transform="matrix(0.05,0,0,0.05,12,0)" xlink:href="#an"/><use transform="matrix(0.05,0,0,0.05,24,0)" xlink:href="#ak"/><use transform="matrix(0.05,0,0,0.05,36.95,0)" xlink:href="#ao"/></g><g id="x"><use transform="matrix(0.05,0,0,0.05,0,0)" xlink:href="#ao"/><use transform="matrix(0.05,0,0,0.05,12.950000000000001,0)" xlink:href="#an"/><use transform="matrix(0.05,0,0,0.05,24.950000000000003,0)" xlink:href="#ag"/><use transform="matrix(0.05,0,0,0.05,34.95,0)" xlink:href="#an"/><use transform="matrix(0.05,0,0,0.05,46.95,0)" xlink:href="#ar"/><use transform="matrix(0.05,0,0,0.05,57.900000000000006,0)" xlink:href="#an"/></g></defs></g></svg>